<svg width="160" height="160" viewBox="0 0 160 160" fill="none" xmlns="http://www.w3.org/2000/svg">
<path d="M114.763 75.1946L103.81 77.3239C100.694 77.9291 98.6591 80.9465 99.2649 84.0624C99.8707 87.1783 102.888 89.2131 106.003 88.6079L116.957 86.4786C120.072 85.8728 122.107 82.856 121.501 79.7401C120.896 76.6242 117.879 74.5888 114.763 75.1946Z" fill="url(#paint0_linear_2599_5222)"/>
<path d="M119.067 80.813C119.122 79.3945 118.017 78.1997 116.598 78.1446C115.18 78.0889 113.985 79.1945 113.93 80.613C113.874 82.0316 114.98 83.2263 116.398 83.282C117.817 83.3371 119.012 82.2316 119.067 80.813Z" fill="#EBEBEB"/>
<path d="M116.765 82.0949C117.528 81.9465 118.026 81.208 117.878 80.4457C117.73 79.6828 116.991 79.1848 116.228 79.3326C115.466 79.481 114.968 80.2196 115.116 80.9825C115.264 81.7448 116.003 82.2434 116.765 82.0949Z" fill="#DBDBDB"/>
<path d="M97.3976 57.8849L41.4733 68.7557C38.3305 69.3661 36.2779 72.4096 36.8888 75.5522L44.4448 114.424C45.0557 117.567 48.0987 119.619 51.2415 119.008L107.166 108.138C110.309 107.527 112.361 104.484 111.751 101.341L104.194 62.4693C103.584 59.3267 100.541 57.274 97.3976 57.8849Z" fill="url(#paint1_linear_2599_5222)"/>
<path d="M96.3765 40.2077L107.8 69.7356C108.44 71.386 107.618 73.2423 105.97 73.8805L59.1394 91.9982C57.4917 92.6371 55.6354 91.815 54.9958 90.1646L43.5723 60.6365C42.9793 59.1003 43.7411 57.3741 45.2778 56.7812L92.5197 38.5059C94.0565 37.9129 95.7823 38.6747 96.3753 40.2114L96.3765 40.2077Z" fill="url(#paint2_linear_2599_5222)"/>
<path d="M98.5765 68.519C99.162 70.0373 98.4089 71.7445 96.8907 72.33C95.373 72.9161 93.6652 72.1625 93.0796 70.6443C92.4936 69.1266 93.2472 67.4193 94.7654 66.8332C96.2831 66.2477 97.9909 67.0014 98.5765 68.519Z" fill="url(#paint3_linear_2599_5222)"/>
<path d="M101.959 67.2082C102.545 68.7265 101.791 70.4337 100.274 71.0198C98.7555 71.6053 97.0482 70.8517 96.4621 69.334C95.8766 67.8158 96.6303 66.1085 98.1479 65.523C99.6662 64.9369 101.373 65.6905 101.959 67.2082Z" fill="url(#paint4_linear_2599_5222)"/>
<path d="M57.6867 57.8078L50.0141 60.7759C49.3955 61.0153 49.088 61.711 49.3273 62.3295L51.1112 66.9405C51.3505 67.5591 52.046 67.8669 52.6646 67.6275L60.337 64.6588C60.9561 64.4199 61.2634 63.7243 61.0239 63.1057L59.2402 58.4947C59.0008 57.8759 58.3051 57.5685 57.6867 57.8078Z" fill="url(#paint5_linear_2599_5222)"/>
<path d="M92.6072 48.617L88.1208 50.3513C87.0825 50.75 85.9173 50.2356 85.5156 49.1981C85.1173 48.1596 85.6315 46.9943 86.6692 46.593L91.155 44.8586C92.1927 44.4574 93.3591 44.9745 93.7602 46.0119C94.1591 47.0503 93.6443 48.2157 92.6072 48.617Z" fill="white"/>
<path d="M53.594 74.4448L53.2805 74.8408C53.2805 74.8408 53.2546 74.8692 53.2359 74.8762C53.1985 74.8906 53.1583 74.8814 53.132 74.8611C53.0822 74.8188 53.0756 74.7538 53.1171 74.7103L53.5423 74.1585C53.5784 74.1167 53.6513 74.1075 53.6928 74.1434C53.7153 74.1625 53.7272 74.1851 53.7348 74.213L54.7573 76.853C54.7778 76.9063 54.7552 76.9672 54.6965 76.9898C54.643 77.0101 54.5803 76.9822 54.5598 76.9289L53.5993 74.4425L53.594 74.4448Z" fill="#F8F8F8"/>
<path d="M55.4285 76.5022L56.3013 74.7701C56.4041 74.5591 56.4137 74.3289 56.3348 74.1231C56.2672 73.9469 56.1328 73.7967 55.9503 73.704C55.7447 73.5996 55.5101 73.5944 55.3109 73.6738C55.1293 73.744 54.9767 73.8727 54.8817 74.0565L54.7921 74.2379C54.7674 74.293 54.6997 74.3162 54.6523 74.2883C54.5968 74.2634 54.5739 74.1962 54.6016 74.1486L54.6902 73.9643C54.8103 73.7347 55.0081 73.5637 55.235 73.4767C55.4859 73.3799 55.7765 73.3788 56.0443 73.5179C56.2822 73.635 56.4483 73.8286 56.5334 74.0501C56.6307 74.304 56.6277 74.5991 56.4949 74.8675L55.7476 76.3521L57.1091 75.8292C57.1615 75.806 57.2233 75.8315 57.2458 75.8901C57.2663 75.9434 57.2383 76.0066 57.185 76.0269L55.5826 76.6478L55.5666 76.6541C55.5372 76.6657 55.5047 76.6686 55.4805 76.6535C55.4258 76.6222 55.4022 76.5608 55.4269 76.5057L55.4285 76.5022Z" fill="#F8F8F8"/>
<path d="M58.6205 72.3731L58.173 73.4241C58.3684 73.3922 58.5747 73.4108 58.7672 73.4966C59.0292 73.6131 59.2217 73.827 59.3179 74.078C59.4142 74.329 59.4171 74.616 59.2976 74.8792C59.1811 75.1418 58.9678 75.3366 58.7179 75.4357C58.4727 75.5296 58.1857 75.5325 57.9224 75.4131C57.868 75.391 57.8408 75.3284 57.8671 75.2693C57.8881 75.2119 57.9521 75.1876 58.0113 75.2137C58.22 75.3024 58.4431 75.3024 58.6408 75.2264C58.8385 75.1505 59.0072 74.9997 59.1023 74.7922C59.1956 74.5812 59.1921 74.3563 59.1162 74.1586C59.0402 73.9609 58.8901 73.7922 58.6814 73.7041C58.4733 73.609 58.2484 73.6131 58.0507 73.6884C58.0188 73.7012 57.9828 73.696 57.9525 73.6803L57.9471 73.6826C57.8891 73.6589 57.8634 73.5922 57.8908 73.5354L58.3208 72.525L57.2182 72.9481C57.1605 72.9737 57.0977 72.9458 57.0762 72.8896C57.0536 72.831 57.0816 72.7679 57.1376 72.7464L58.4831 72.2299C58.5405 72.205 58.6037 72.2328 58.6252 72.289C58.6315 72.3047 58.6321 72.3232 58.6292 72.3395C58.6292 72.3545 58.6252 72.3684 58.6199 72.3795L58.6205 72.3731Z" fill="#F8F8F8"/>
<path d="M61.846 73.5423L60.2895 74.1458L60.2762 74.151C60.2547 74.1591 60.2287 74.1632 60.2066 74.1533C60.1487 74.1389 60.1179 74.0739 60.14 74.0194L61.0032 71.3052L61.0061 71.2977C61.0263 71.238 61.0803 71.2113 61.14 71.231C61.1608 71.2386 61.1765 71.2542 61.1904 71.267C61.1933 71.2751 61.2008 71.278 61.202 71.2809L61.2072 71.2942L61.9695 73.2652L62.162 73.191C62.2205 73.169 62.2837 73.1968 62.304 73.2502C62.3243 73.3035 62.2965 73.3661 62.2403 73.3876L62.0484 73.4618L62.2379 73.9557C62.2582 74.009 62.2304 74.0716 62.1742 74.0931C62.1208 74.1139 62.0582 74.0855 62.0374 74.0322L61.8478 73.5383L61.846 73.5423ZM61.7707 73.3446L61.1185 71.6623L60.4113 73.8728L61.7724 73.3499L61.7707 73.3446Z" fill="#F8F8F8"/>
<path d="M65.5681 72.4576C65.5101 72.4339 65.4846 72.3672 65.513 72.3133C65.538 72.2582 65.6035 72.2298 65.6597 72.2571C65.8684 72.3457 66.0922 72.3458 66.2893 72.2698C66.4869 72.1939 66.6504 72.0455 66.7443 71.835C66.8383 71.624 66.8354 71.4014 66.7594 71.2043C66.6829 71.0037 66.5322 70.835 66.3252 70.7429C66.1194 70.6536 65.8933 70.6547 65.6956 70.7301C65.4951 70.8072 65.3293 70.9568 65.2354 71.1672C65.2104 71.2229 65.1438 71.2484 65.091 71.2229C65.0748 71.22 65.0614 71.2095 65.0551 71.1997L65.0527 71.1944C65.0527 71.1944 65.0446 71.1886 65.0423 71.1834C65.0342 71.1771 65.029 71.1637 65.0249 71.1533C65.0226 71.1481 65.022 71.1388 65.0191 71.1307L64.7096 69.9173C64.6974 69.8855 64.7032 69.8524 64.7211 69.8275C64.731 69.8049 64.7519 69.7881 64.7785 69.7776L66.1188 69.2634C66.1762 69.2379 66.2388 69.2658 66.2609 69.322C66.2841 69.3834 66.2551 69.4437 66.1994 69.4652L64.9443 69.9469L65.1727 70.8455C65.2858 70.7005 65.4365 70.591 65.6104 70.5243C65.8614 70.4281 66.1409 70.4217 66.4075 70.5428C66.6754 70.6576 66.8603 70.8681 66.9588 71.1243C67.0527 71.3701 67.0632 71.6605 66.9409 71.9249C66.8232 72.184 66.6075 72.3805 66.3594 72.4756C66.1084 72.5718 65.8214 72.5747 65.5594 72.4582L65.5681 72.4576Z" fill="#F8F8F8"/>
<path d="M67.5474 69.4337C67.6112 69.0082 67.8425 68.6221 68.3132 68.4198C68.3648 68.3942 68.4274 68.4221 68.4535 68.4737C68.4755 68.5322 68.4477 68.5948 68.3955 68.618C67.9984 68.789 67.8251 69.0945 67.7579 69.4632C67.7236 69.669 67.7376 69.8969 67.7764 70.1177C67.8744 69.8534 68.0784 69.6279 68.3619 69.5195C68.8929 69.3154 69.4802 69.5769 69.6813 70.1003C69.8831 70.6261 69.6239 71.2122 69.0964 71.418C68.5816 71.6157 68.0065 71.3711 67.7921 70.8684C67.7608 70.8099 67.737 70.7484 67.7115 70.6818C67.5677 70.2992 67.4842 69.8499 67.5503 69.4325L67.5474 69.4337ZM67.9863 70.7751C67.9944 70.7966 68.006 70.8105 68.0147 70.8256C68.0199 70.8389 68.0228 70.847 68.0205 70.8569C68.2118 71.2035 68.6379 71.3641 69.0147 71.2198C69.4338 71.0592 69.6396 70.5908 69.4819 70.1798C69.3242 69.7687 68.8558 69.5624 68.4367 69.7235C68.0257 69.8812 67.8193 70.349 67.9776 70.7606L67.9834 70.7763L67.9863 70.7751Z" fill="#F8F8F8"/>
<path d="M71.0392 70.5086L71.1262 67.5747L69.7349 68.1086C69.6827 68.1312 69.6207 68.1063 69.6004 68.0529C69.5801 67.9996 69.6079 67.9364 69.6613 67.9161L71.183 67.3318C71.201 67.3156 71.2201 67.3086 71.2445 67.3086C71.2734 67.3127 71.3042 67.3283 71.3216 67.3492C71.332 67.3608 71.3378 67.3677 71.3418 67.3782C71.35 67.3996 71.3505 67.4176 71.3459 67.4379L71.256 70.5138C71.2543 70.5573 71.2259 70.5961 71.1888 70.61C71.1726 70.6164 71.1645 70.6193 71.1453 70.6176C71.0868 70.6158 71.0392 70.5637 71.0363 70.5092L71.0392 70.5086Z" fill="#F8F8F8"/>
<path d="M72.8205 66.6715C73.1492 66.5457 73.5237 66.708 73.65 67.0361C73.7266 67.2367 73.6947 67.4477 73.5909 67.6164C73.9857 67.6239 74.355 67.868 74.5039 68.2552C74.7028 68.7729 74.4489 69.3486 73.9318 69.5497C73.4164 69.748 72.8384 69.4947 72.6373 68.9781C72.4883 68.5909 72.5973 68.1631 72.879 67.8929C72.6929 67.8384 72.53 67.7022 72.4535 67.5016C72.3271 67.1735 72.4854 66.8031 72.8193 66.6749L72.8205 66.6715ZM73.8576 69.3486C74.2686 69.1909 74.4645 68.7358 74.3092 68.33C74.1544 67.9271 73.7016 67.7207 73.29 67.879C72.8842 68.0344 72.6842 68.4941 72.839 68.8976C72.9955 69.3057 73.4518 69.5045 73.8576 69.3486ZM73.2089 67.6744C73.428 67.5839 73.5399 67.3329 73.4553 67.1109C73.37 66.8894 73.1208 66.7828 72.8993 66.868C72.6779 66.9532 72.57 67.1996 72.6553 67.421C72.7405 67.6425 72.9886 67.7555 73.2112 67.6732L73.2089 67.6744Z" fill="#F8F8F8"/>
<path d="M77.9305 64.6947C78.4244 64.5052 78.9641 64.715 79.1989 65.1666C79.207 65.173 79.2094 65.1782 79.2152 65.1852C79.2499 65.2605 79.2847 65.3423 79.3172 65.4275C79.4639 65.8095 79.5468 66.2646 79.4859 66.6803C79.4192 67.0976 79.1856 67.4936 78.7201 67.6936L78.7149 67.6959C78.6563 67.7185 78.5954 67.6959 78.5746 67.6426C78.5525 67.5834 78.5757 67.5255 78.6326 67.4976C79.0233 67.3261 79.2088 67.0194 79.2702 66.6524C79.3021 66.4414 79.2957 66.2171 79.2517 65.9979C79.1537 66.2623 78.9462 66.4797 78.6581 66.5904C78.1346 66.791 77.5479 66.5388 77.3409 66.0084C77.1404 65.4855 77.4018 64.8976 77.9253 64.6971L77.9305 64.6947ZM79.0476 65.3475C78.8899 64.9365 78.4262 64.7342 78.007 64.8953C77.596 65.053 77.3891 65.5185 77.5456 65.9272C77.7068 66.3463 78.1717 66.544 78.5827 66.3863C79.0018 66.2258 79.2088 65.7666 79.0447 65.3481L79.0476 65.3475Z" fill="#F8F8F8"/>
<path d="M80.172 65.4824C80.0236 65.0957 79.9841 64.7062 80.0572 64.3688C80.1349 64.0453 80.3181 63.7728 80.6091 63.6609C80.9001 63.5491 81.2212 63.6279 81.4949 63.814C81.7708 64.0146 82.0131 64.3259 82.1644 64.712C82.3128 65.0986 82.3441 65.4911 82.2717 65.8221C82.1951 66.1485 82.0125 66.4238 81.7215 66.5357C81.4305 66.647 81.1094 66.5682 80.834 66.3769C80.5575 66.1833 80.3198 65.8673 80.1708 65.4801L80.172 65.4824ZM80.372 65.4059C80.5076 65.7583 80.7256 66.0389 80.9604 66.203C81.1934 66.3647 81.4392 66.4146 81.645 66.3351C81.8502 66.2563 81.9934 66.0546 82.0618 65.7775C82.1233 65.4992 82.1001 65.1438 81.965 64.7914C81.8299 64.4389 81.6062 64.1601 81.3743 63.9949C81.1354 63.8267 80.8954 63.7838 80.6896 63.8627C80.4838 63.9415 80.3325 64.1375 80.2728 64.4209C80.2114 64.6986 80.2398 65.0522 80.376 65.4076L80.372 65.4059Z" fill="#F8F8F8"/>
<path d="M83.049 63.052L82.7359 63.4485C82.7359 63.4485 82.7099 63.4763 82.6913 63.4839C82.6536 63.4984 82.6136 63.4891 82.587 63.4688C82.5371 63.4265 82.5307 63.3615 82.5725 63.3181L82.9974 62.7656C83.0339 62.7244 83.1064 62.7146 83.1481 62.7511C83.1707 62.7697 83.1823 62.7928 83.1899 62.8207L84.2125 65.4601C84.2328 65.514 84.2101 65.5743 84.1516 65.5969C84.0983 65.6178 84.0357 65.5894 84.0148 65.536L83.0548 63.0502L83.049 63.052Z" fill="#F8F8F8"/>
<path d="M84.882 65.1082L85.7545 63.3766C85.8577 63.1656 85.8669 62.9348 85.7881 62.7296C85.7203 62.5534 85.5864 62.4027 85.4037 62.3105C85.1979 62.2056 84.9632 62.2009 84.7643 62.2804C84.5829 62.3499 84.431 62.4815 84.3348 62.6624L84.2455 62.8438C84.2206 62.8995 84.1527 62.9221 84.1058 62.8943C84.0501 62.8699 84.0269 62.8021 84.0548 62.7546L84.1435 62.5708C84.2635 62.3406 84.4611 62.1696 84.6872 62.0798C84.9382 61.9835 85.2287 61.9824 85.4965 62.1215C85.7342 62.2386 85.9006 62.4322 85.9858 62.6537C86.0832 62.907 86.0797 63.2027 85.9469 63.4711L85.1997 64.9557L86.5614 64.4328C86.6136 64.4096 86.6768 64.4375 86.6982 64.4937C86.7185 64.547 86.6907 64.6096 86.6374 64.6305L85.035 65.2514L85.0188 65.2577C84.9893 65.2688 84.9568 65.2722 84.933 65.2572C84.8779 65.2259 84.8542 65.1644 84.8791 65.1093L84.882 65.1082Z" fill="#F8F8F8"/>
<path d="M90.5349 60.0274L90.0868 61.079C90.2827 61.0465 90.4891 61.0651 90.681 61.1509C90.9436 61.2674 91.1361 61.4813 91.2323 61.7323C91.3285 61.9833 91.3314 62.2703 91.212 62.5335C91.0949 62.7961 90.8822 62.9909 90.6346 63.0888C90.3894 63.1833 90.0995 63.1874 89.8364 63.068C89.7819 63.0459 89.7546 62.9827 89.7813 62.9236C89.8033 62.8691 89.8659 62.8419 89.9251 62.868C90.1338 62.9566 90.3575 62.9566 90.5552 62.8807C90.7523 62.8048 90.9216 62.654 91.0161 62.4465C91.11 62.2361 91.1059 62.0106 91.0306 61.8129C90.9546 61.6158 90.8039 61.4465 90.5952 61.3584C90.3877 61.2633 90.1622 61.2674 89.9645 61.3433C89.9326 61.3555 89.8972 61.3509 89.8665 61.3346L89.8613 61.3369C89.8033 61.3132 89.7772 61.2465 89.8051 61.1897L90.2346 60.1798L89.132 60.603C89.0746 60.628 89.012 60.6001 88.99 60.5439C88.9679 60.4853 88.9958 60.4222 89.0514 60.4007L90.3969 59.8842C90.4549 59.8593 90.5175 59.8871 90.539 59.9433C90.5453 59.9595 90.5459 59.9775 90.543 59.9937C90.543 60.0094 90.539 60.0227 90.5343 60.0337L90.5349 60.0274Z" fill="#F8F8F8"/>
<path d="M93.7613 61.1967L92.2024 61.7956L92.1978 61.8002L92.1903 61.8031C92.1688 61.8112 92.1439 61.8182 92.1207 61.8054C92.0627 61.7909 92.032 61.726 92.054 61.6715L92.9172 58.9573L92.9201 58.9498C92.9404 58.8901 92.9943 58.8634 93.054 58.8837C93.0749 58.8906 93.0905 58.9063 93.1045 58.919C93.1074 58.9272 93.1126 58.9312 93.1161 58.933L93.1213 58.9463L93.8836 60.9173L94.0761 60.8437C94.1346 60.8211 94.1978 60.8489 94.2181 60.9022C94.2384 60.9556 94.2105 61.0187 94.1543 61.0402L93.9624 61.1138L94.152 61.6077C94.1723 61.6611 94.1445 61.7237 94.0882 61.7451C94.0349 61.766 93.9723 61.7382 93.9514 61.6843L93.7619 61.1903L93.7613 61.1967ZM93.6853 60.9996L93.0337 59.3167L92.3259 61.5272L93.6876 61.0048L93.6853 60.9996Z" fill="#F8F8F8"/>
<path d="M95.0212 61.0614C94.9633 61.0376 94.9378 60.9709 94.9662 60.917C94.9905 60.8619 95.0578 60.8359 95.1128 60.8608C95.3215 60.9489 95.5447 60.9489 95.7424 60.8735C95.9401 60.7976 96.1036 60.6492 96.1975 60.4382C96.2914 60.2277 96.2885 60.0051 96.2125 59.8075C96.1354 59.6075 95.9853 59.4388 95.7783 59.3466C95.5714 59.2544 95.3459 59.2579 95.1488 59.3338C94.9482 59.4109 94.7824 59.5605 94.6885 59.7709C94.6636 59.8266 94.598 59.8544 94.5441 59.826C94.5279 59.8231 94.5146 59.8133 94.5082 59.8034L94.5059 59.7982C94.5059 59.7982 94.4978 59.7924 94.4954 59.7866C94.4867 59.7808 94.4821 59.7675 94.478 59.757C94.4757 59.7512 94.4752 59.7425 94.4723 59.7344L94.1627 58.5211C94.1505 58.4886 94.1563 58.4562 94.1743 58.4306C94.1841 58.4086 94.205 58.3912 94.2317 58.3814L95.5714 57.8668C95.6294 57.8415 95.692 57.8695 95.7134 57.9255C95.7372 57.9872 95.7082 58.0469 95.652 58.0683L94.3975 58.5501L94.6259 59.4486C94.7401 59.3072 94.8896 59.1941 95.0635 59.128C95.314 59.0312 95.5934 59.0254 95.8607 59.1466C96.1285 59.2614 96.3134 59.4718 96.412 59.728C96.5059 59.9738 96.5163 60.2637 96.394 60.528C96.2763 60.7877 96.0607 60.9837 95.8125 61.0793C95.5615 61.1756 95.2746 61.1785 95.0125 61.0619L95.0212 61.0614Z" fill="#F8F8F8"/>
<path d="M97.0009 58.0393C97.0646 57.6136 97.2948 57.2249 97.7667 57.0254C97.8182 56.9996 97.8809 57.0275 97.9064 57.0789C97.929 57.1376 97.9011 57.2004 97.849 57.2236C97.453 57.397 97.278 57.6999 97.2113 58.0689C97.1771 58.2747 97.191 58.5019 97.2298 58.7233C97.3278 58.459 97.5319 58.2335 97.8148 58.1251C98.3464 57.9209 98.9336 58.1825 99.1348 58.7054C99.3365 59.2318 99.0774 59.8178 98.5498 60.0236C98.0345 60.2213 97.46 59.9767 97.2455 59.4735C97.2136 59.4155 97.1904 59.3541 97.1649 59.2874C97.0206 58.9042 96.9371 58.4555 97.0038 58.0381L97.0009 58.0393ZM97.4397 59.3807C97.4478 59.4022 97.4594 59.4161 97.4681 59.4312C97.4733 59.4445 97.4762 59.4526 97.4739 59.4625C97.6652 59.8086 98.0913 59.9697 98.4675 59.8254C98.8867 59.6642 99.093 59.1964 98.9354 58.7854C98.7777 58.3738 98.3093 58.168 97.8901 58.3286C97.4791 58.4868 97.2727 58.9547 97.4304 59.3657L97.4368 59.3819L97.4397 59.3807Z" fill="#F8F8F8"/>
<path d="M81.9439 72.1191L56.8672 81.8206L57.3439 83.0525L82.4204 73.351L81.9439 72.1191Z" fill="url(#paint6_linear_2599_5222)"/>
<path d="M75.6793 77.6895L57.9258 84.5579L58.4022 85.7903L76.1559 78.9219L75.6793 77.6895Z" fill="url(#paint7_linear_2599_5222)"/>
<path d="M82.4495 48.2263L71.1765 52.5875C70.8362 52.7191 70.6669 53.1016 70.7985 53.4419C70.9301 53.7821 71.3127 53.9512 71.653 53.8196L82.9261 49.4584C83.2664 49.3268 83.4351 48.9443 83.3035 48.6041C83.1719 48.2638 82.7893 48.0947 82.4495 48.2263Z" fill="#3B3B3B"/>
<path d="M103.107 79.7012L44.3516 91.1226L48.9239 114.645L107.68 103.224L103.107 79.7012Z" fill="url(#paint8_linear_2599_5222)"/>
<path opacity="0.2" d="M103.107 79.7012L44.3516 91.1226L48.9239 114.645L107.68 103.224L103.107 79.7012Z" fill="black"/>
<path d="M108.535 117.304L50.6474 120.233C47.7651 120.379 45.2145 118.383 44.6638 115.55L36.3308 72.6801C36.1342 71.6685 37.1737 70.8645 38.1034 71.3091C39.1824 71.8245 40.3814 72.043 41.5764 71.9422L93.5787 67.494C96.5311 67.2413 99.1984 69.2552 99.7636 72.1636L108.537 117.3C108.537 117.302 108.536 117.303 108.535 117.304Z" fill="url(#paint9_linear_2599_5222)"/>
<path d="M96.24 96.19C97.5873 95.9285 98.4377 94.4717 98.1391 92.9372C97.8412 91.4027 96.5072 90.3708 95.16 90.6323C93.8128 90.8943 92.9623 92.3506 93.2609 93.8856C93.5594 95.4201 94.8933 96.452 96.24 96.19Z" fill="#EBEBEB"/>
<path d="M96.8345 93.1912C96.9731 93.9042 96.5777 94.5813 95.9517 94.7025C95.3256 94.8242 94.7053 94.3448 94.5667 93.6318C94.4282 92.9193 94.8235 92.2422 95.4496 92.1205C96.0757 91.9987 96.696 92.4781 96.8345 93.1912Z" fill="#DBDBDB"/>
<defs>
<linearGradient id="paint0_linear_2599_5222" x1="101.768" y1="77.7204" x2="122.696" y2="81.3389" gradientUnits="userSpaceOnUse">
<stop stop-color="#A259FF"/>
<stop offset="1" stop-color="#3B3B3B"/>
</linearGradient>
<linearGradient id="paint1_linear_2599_5222" x1="87.9988" y1="130.375" x2="65.3906" y2="85.9783" gradientUnits="userSpaceOnUse">
<stop stop-color="#A259FF"/>
<stop offset="1" stop-color="#3B3B3B"/>
</linearGradient>
<linearGradient id="paint2_linear_2599_5222" x1="51.0247" y1="54.4342" x2="105.472" y2="49.7314" gradientUnits="userSpaceOnUse">
<stop stop-color="#A259FF"/>
<stop offset="1" stop-color="#FF6250"/>
</linearGradient>
<linearGradient id="paint3_linear_2599_5222" x1="92.9115" y1="67.5451" x2="98.6263" y2="66.5289" gradientUnits="userSpaceOnUse">
<stop stop-color="#A259FF"/>
<stop offset="1" stop-color="#FF6250"/>
</linearGradient>
<linearGradient id="paint4_linear_2599_5222" x1="96.2946" y1="66.2343" x2="102.009" y2="65.2181" gradientUnits="userSpaceOnUse">
<stop stop-color="#A259FF"/>
<stop offset="1" stop-color="#3B3B3B"/>
</linearGradient>
<linearGradient id="paint5_linear_2599_5222" x1="50.4989" y1="60.5886" x2="60.719" y2="59.5939" gradientUnits="userSpaceOnUse">
<stop stop-color="#A259FF"/>
<stop offset="1" stop-color="#3B3B3B"/>
</linearGradient>
<linearGradient id="paint6_linear_2599_5222" x1="60.9271" y1="80.2496" x2="64.7879" y2="85.6739" gradientUnits="userSpaceOnUse">
<stop stop-color="#A259FF"/>
<stop offset="1" stop-color="#FF6250"/>
</linearGradient>
<linearGradient id="paint7_linear_2599_5222" x1="60.7999" y1="83.446" x2="65.0364" y2="88.3295" gradientUnits="userSpaceOnUse">
<stop stop-color="#A259FF"/>
<stop offset="1" stop-color="#FF6250"/>
</linearGradient>
<linearGradient id="paint8_linear_2599_5222" x1="53.8643" y1="89.2733" x2="106.174" y2="103.017" gradientUnits="userSpaceOnUse">
<stop stop-color="#A259FF"/>
<stop offset="1" stop-color="#3B3B3B"/>
</linearGradient>
<linearGradient id="paint9_linear_2599_5222" x1="92.9247" y1="103.025" x2="2.30799" y2="59.5352" gradientUnits="userSpaceOnUse">
<stop stop-color="#A259FF"/>
<stop offset="0.666667" stop-color="white"/>
</linearGradient>
</defs>
</svg>
