<svg width="13" height="14" viewBox="0 0 13 14" fill="none" xmlns="http://www.w3.org/2000/svg">
<path d="M5.47712 1.518C5.70918 0.556499 7.07685 0.556499 7.30891 1.518L8.09007 4.75405C8.17305 5.09762 8.44134 5.36592 8.78491 5.44889L12.021 6.23005C12.9825 6.46211 12.9825 7.82978 12.021 8.06184L8.78491 8.843C8.44134 8.92597 8.17305 9.19418 8.09007 9.53784L7.30891 12.7739C7.07685 13.7354 5.70918 13.7354 5.47712 12.7739L4.69596 9.53784C4.61299 9.19418 4.34478 8.92597 4.00112 8.843L0.765073 8.06184C-0.196431 7.82978 -0.196431 6.46211 0.765073 6.23005L4.00112 5.44889C4.34478 5.36592 4.61299 5.09762 4.69596 4.75405L5.47712 1.518Z" fill="white"/>
</svg>
