<svg aria-hidden="true" xmlns="http://www.w3.org/2000/svg" xmlns:xlink="http://www.w3.org/1999/xlink"><symbol viewBox="0 0 24 20" id="arrow-left" xmlns="http://www.w3.org/2000/svg">
<path fill-rule="evenodd" clip-rule="evenodd" d="M0 10C0 9.44772 0.447715 9 1 9H23C23.5523 9 24 9.44772 24 10C24 10.5523 23.5523 11 23 11H1C0.447715 11 0 10.5523 0 10Z"/>
<path fill-rule="evenodd" clip-rule="evenodd" d="M10.7071 0.292893C11.0976 0.683417 11.0976 1.31658 10.7071 1.70711L2.41421 10L10.7071 18.2929C11.0976 18.6834 11.0976 19.3166 10.7071 19.7071C10.3166 20.0976 9.68342 20.0976 9.29289 19.7071L0.292893 10.7071C-0.0976311 10.3166 -0.0976311 9.68342 0.292893 9.29289L9.29289 0.292893C9.68342 -0.0976311 10.3166 -0.0976311 10.7071 0.292893Z"/>
</symbol><symbol viewBox="0 0 24 20" id="arrow-right" xmlns="http://www.w3.org/2000/svg">
<path fill-rule="evenodd" clip-rule="evenodd" d="M0 10C0 9.44772 0.447715 9 1 9H23C23.5523 9 24 9.44772 24 10C24 10.5523 23.5523 11 23 11H1C0.447715 11 0 10.5523 0 10Z"/>
<path fill-rule="evenodd" clip-rule="evenodd" d="M13.2929 0.292893C13.6834 -0.0976311 14.3166 -0.0976311 14.7071 0.292893L23.7071 9.29289C24.0976 9.68342 24.0976 10.3166 23.7071 10.7071L14.7071 19.7071C14.3166 20.0976 13.6834 20.0976 13.2929 19.7071C12.9024 19.3166 12.9024 18.6834 13.2929 18.2929L21.5858 10L13.2929 1.70711C12.9024 1.31658 12.9024 0.683417 13.2929 0.292893Z"/>
</symbol><symbol viewBox="0 0 78 78" id="ball" xmlns="http://www.w3.org/2000/svg">
<path fill-rule="evenodd" clip-rule="evenodd" d="M39 3C19.1177 3 3 19.1177 3 39C3 58.8823 19.1177 75 39 75C58.8823 75 75 58.8823 75 39C75 19.1177 58.8823 3 39 3ZM0 39C0 17.4609 17.4609 0 39 0C60.5391 0 78 17.4609 78 39C78 60.5391 60.5391 78 39 78C17.4609 78 0 60.5391 0 39Z"/>
<path fill-rule="evenodd" clip-rule="evenodd" d="M11.3782 11.4546C11.9648 10.8695 12.9145 10.8708 13.4995 11.4573C20.7915 18.7684 24.883 28.6751 24.875 39.001C24.883 49.3268 20.7915 59.2336 13.4995 66.5446C12.9145 67.1312 11.9648 67.1324 11.3782 66.5474C10.7917 65.9624 10.7904 65.0126 11.3755 64.4261C18.1062 57.6777 21.8827 48.5334 21.875 39.0022V38.9998C21.8827 29.4686 18.1062 20.3242 11.3755 13.5759C10.7904 12.9893 10.7917 12.0396 11.3782 11.4546Z"/>
<path fill-rule="evenodd" clip-rule="evenodd" d="M66.6215 11.4536C67.2086 12.038 67.2108 12.9878 66.6263 13.5749C59.9027 20.3288 56.1279 29.4709 56.1279 39.001C56.1279 48.5311 59.9027 57.6732 66.6263 64.4271C67.2108 65.0142 67.2086 65.9639 66.6215 66.5484C66.0344 67.1329 65.0847 67.1307 64.5002 66.5436C57.2169 59.2275 53.1279 49.3244 53.1279 39.001C53.1279 28.6776 57.2169 18.7745 64.5002 11.4583C65.0847 10.8712 66.0344 10.8691 66.6215 11.4536Z"/>
<path fill-rule="evenodd" clip-rule="evenodd" d="M0 39C0 38.1716 0.671573 37.5 1.5 37.5H76.5C77.3284 37.5 78 38.1716 78 39C78 39.8284 77.3284 40.5 76.5 40.5H1.5C0.671573 40.5 0 39.8284 0 39Z"/>
<path fill-rule="evenodd" clip-rule="evenodd" d="M39 0C39.8284 0 40.5 0.671573 40.5 1.5V76.5C40.5 77.3284 39.8284 78 39 78C38.1716 78 37.5 77.3284 37.5 76.5V1.5C37.5 0.671573 38.1716 0 39 0Z"/>
</symbol><symbol viewBox="0 0 60 78" id="bookmarks" xmlns="http://www.w3.org/2000/svg">
<path fill-rule="evenodd" clip-rule="evenodd" d="M5 15.5C4.56902 15.5 4.1557 15.6712 3.85095 15.976C3.5462 16.2807 3.375 16.694 3.375 17.125V73.5852L22.8781 59.6544C23.3997 59.2819 24.1003 59.2819 24.6219 59.6544L44.125 73.5852V17.125C44.125 16.694 43.9538 16.2807 43.6491 15.976C43.3443 15.6712 42.931 15.5 42.5 15.5H5ZM1.72963 13.8546C2.59699 12.9873 3.77337 12.5 5 12.5H42.5C43.7266 12.5 44.903 12.9873 45.7704 13.8546C46.6377 14.722 47.125 15.8984 47.125 17.125V76.5C47.125 77.0619 46.811 77.5766 46.3114 77.8338C45.8118 78.0909 45.2104 78.0472 44.7531 77.7206L23.75 62.7184L2.74686 77.7206C2.28964 78.0472 1.68823 78.0909 1.18863 77.8338C0.689021 77.5766 0.375 77.0619 0.375 76.5V17.125C0.375 15.8984 0.862277 14.722 1.72963 13.8546Z"/>
<path fill-rule="evenodd" clip-rule="evenodd" d="M12.875 1.5C12.875 0.671573 13.5466 0 14.375 0H55C56.2266 0 57.403 0.487276 58.2704 1.35463C59.1377 2.22199 59.625 3.39838 59.625 4.625V64C59.625 64.8284 58.9534 65.5 58.125 65.5C57.2966 65.5 56.625 64.8284 56.625 64V4.625C56.625 4.19402 56.4538 3.7807 56.1491 3.47595C55.8443 3.17121 55.431 3 55 3H14.375C13.5466 3 12.875 2.32843 12.875 1.5Z"/>
</symbol><symbol viewBox="0 0 78 69" id="camera" xmlns="http://www.w3.org/2000/svg">
<path fill-rule="evenodd" clip-rule="evenodd" d="M25.2519 0.79295C25.5301 0.375652 25.9985 0.125 26.5 0.125H51.5C52.0015 0.125 52.4699 0.375652 52.7481 0.79295L58.5528 9.5H70.25C72.3054 9.5 74.2767 10.3165 75.7301 11.7699C77.1835 13.2233 78 15.1946 78 17.25V61C78 63.0554 77.1835 65.0267 75.7301 66.4801C74.2767 67.9335 72.3054 68.75 70.25 68.75H7.75C5.69457 68.75 3.72333 67.9335 2.26992 66.4801C0.816515 65.0267 0 63.0554 0 61V17.25C0 15.1946 0.816515 13.2233 2.26992 11.7699C3.72333 10.3165 5.69457 9.5 7.75 9.5H19.4472L25.2519 0.79295ZM27.3028 3.125L21.4981 11.8321C21.2199 12.2493 20.7515 12.5 20.25 12.5H7.75C6.49022 12.5 5.28204 13.0004 4.39124 13.8912C3.50044 14.782 3 15.9902 3 17.25V61C3 62.2598 3.50044 63.468 4.39124 64.3588C5.28204 65.2496 6.49022 65.75 7.75 65.75H70.25C71.5098 65.75 72.718 65.2496 73.6088 64.3588C74.4996 63.468 75 62.2598 75 61V17.25C75 15.9902 74.4996 14.782 73.6088 13.8912C72.718 13.0004 71.5098 12.5 70.25 12.5H57.75C57.2485 12.5 56.7801 12.2493 56.5019 11.8321L50.6972 3.125H27.3028Z"/>
<path fill-rule="evenodd" clip-rule="evenodd" d="M39 25C32.0619 25 26.4375 30.6244 26.4375 37.5625C26.4375 44.5006 32.0619 50.125 39 50.125C45.9381 50.125 51.5625 44.5006 51.5625 37.5625C51.5625 30.6244 45.9381 25 39 25ZM23.4375 37.5625C23.4375 28.9676 30.4051 22 39 22C47.5949 22 54.5625 28.9676 54.5625 37.5625C54.5625 46.1574 47.5949 53.125 39 53.125C30.4051 53.125 23.4375 46.1574 23.4375 37.5625Z"/>
</symbol><symbol viewBox="0 0 24 24" id="copy" xmlns="http://www.w3.org/2000/svg">
<path fill-rule="evenodd" clip-rule="evenodd" d="M6 1C6 0.447715 6.44772 0 7 0H23C23.5523 0 24 0.447715 24 1V17C24 17.5523 23.5523 18 23 18H17C16.4477 18 16 17.5523 16 17C16 16.4477 16.4477 16 17 16H22V2H8V7C8 7.55228 7.55228 8 7 8C6.44772 8 6 7.55228 6 7V1Z"/>
<path fill-rule="evenodd" clip-rule="evenodd" d="M0 7C0 6.44772 0.447715 6 1 6H17C17.5523 6 18 6.44772 18 7V23C18 23.5523 17.5523 24 17 24H1C0.447715 24 0 23.5523 0 23V7ZM2 8V22H16V8H2Z"/>
</symbol><symbol viewBox="0 0 30 24" id="discord" xmlns="http://www.w3.org/2000/svg">
<path d="M11 15.5C11.8284 15.5 12.5 14.8284 12.5 14C12.5 13.1716 11.8284 12.5 11 12.5C10.1716 12.5 9.5 13.1716 9.5 14C9.5 14.8284 10.1716 15.5 11 15.5Z"/>
<path d="M19 15.5C19.8284 15.5 20.5 14.8284 20.5 14C20.5 13.1716 19.8284 12.5 19 12.5C18.1716 12.5 17.5 13.1716 17.5 14C17.5 14.8284 18.1716 15.5 19 15.5Z"/>
<path fill-rule="evenodd" clip-rule="evenodd" d="M14.9927 5.99959C12.8249 5.98356 10.6678 6.30551 8.59914 6.95385C8.07213 7.11902 7.51101 6.8257 7.34584 6.29869C7.18067 5.77168 7.474 5.21056 8.00101 5.04539C10.2656 4.33563 12.6269 3.98281 15.0001 3.99959C17.3732 3.98281 19.7345 4.33563 21.9991 5.04539C22.5261 5.21056 22.8195 5.77168 22.6543 6.29869C22.4891 6.8257 21.928 7.11902 21.401 6.95385C19.3324 6.30551 17.1753 5.98356 15.0075 5.99959H14.9927Z"/>
<path fill-rule="evenodd" clip-rule="evenodd" d="M7.34584 17.7012C7.51101 17.1742 8.07213 16.8809 8.59914 17.046C10.6678 17.6944 12.8249 18.0163 14.9927 18.0003H15.0075C17.1753 18.0163 19.3324 17.6944 21.401 17.046C21.928 16.8809 22.4891 17.1742 22.6543 17.7012C22.8195 18.2282 22.5261 18.7893 21.9991 18.9545C19.7345 19.6643 17.3732 20.0171 15.0001 20.0003C12.6269 20.0171 10.2656 19.6643 8.00101 18.9545C7.474 18.7893 7.18067 18.2282 7.34584 17.7012Z"/>
<path fill-rule="evenodd" clip-rule="evenodd" d="M19.2199 0.811214C19.6504 0.568515 20.1551 0.492673 20.6378 0.598117C21.9554 0.883658 23.2453 1.28424 24.4928 1.79524C24.7736 1.90352 25.0259 2.07496 25.2299 2.29638C25.4362 2.52018 25.5875 2.78885 25.672 3.08115L29.9079 17.2255C30.0183 17.594 30.0209 17.9865 29.9152 18.3563C29.8095 18.7262 29.6 19.0581 29.3116 19.3126L29.3064 19.3171C27.2389 21.1161 24.4376 22.4777 21.2556 23.2577C20.8136 23.3703 20.3462 23.3265 19.9327 23.1336C19.521 22.9414 19.1882 22.6132 18.9903 22.2044L17.482 19.2129C17.2334 18.7197 17.4316 18.1184 17.9248 17.8698C18.4179 17.6211 19.0193 17.8194 19.2679 18.3125L20.7804 21.3125L20.7815 21.3147C23.7194 20.5943 26.2136 19.3571 27.9936 17.8083L28.65 18.5627L27.9884 17.8128C27.9902 17.8113 27.9915 17.8092 27.9921 17.8069C27.9928 17.8046 27.9928 17.8022 27.9921 17.7999L23.756 3.65465C23.7525 3.65325 23.7489 3.65182 23.7454 3.65037C22.6025 3.18149 21.4206 2.81412 20.2132 2.55253L20.211 2.55205C20.208 2.55139 20.2049 2.55186 20.2022 2.55337C20.1998 2.55473 20.1979 2.55684 20.1969 2.55937L19.212 5.53905C19.0386 6.06343 18.473 6.34801 17.9486 6.17468C17.4243 6.00135 17.1397 5.43574 17.313 4.91136L18.3034 1.91516C18.4629 1.44707 18.7892 1.0541 19.2199 0.811214Z"/>
<path fill-rule="evenodd" clip-rule="evenodd" d="M9.79772 2.55337C9.79504 2.55186 9.7919 2.55139 9.7889 2.55205L9.78673 2.55252C8.57939 2.81412 7.39743 3.18148 6.25453 3.65037C6.251 3.65182 6.24746 3.65324 6.24392 3.65465L2.00794 17.7996C2.00725 17.8019 2.00715 17.8046 2.00781 17.8069C2.0084 17.809 2.00951 17.8108 2.01103 17.8123C3.79072 19.3593 6.28311 20.5949 9.21846 21.3147L9.21954 21.3125L10.732 18.3125C10.9807 17.8194 11.582 17.6211 12.0752 17.8698C12.5683 18.1184 12.7665 18.7197 12.5179 19.2129L11.0097 22.2045C10.8118 22.6132 10.479 22.9414 10.0672 23.1336C9.65375 23.3265 9.18631 23.3703 8.74432 23.2577C5.56239 22.4777 2.76102 21.1161 0.693549 19.3171L0.68837 19.3126C0.399904 19.0581 0.190439 18.7262 0.0847573 18.3563C-0.0208975 17.9865 -0.0183814 17.5942 0.092004 17.2258C0.0920324 17.2257 0.0919757 17.2259 0.092004 17.2258L4.3279 3.08117C4.41243 2.78887 4.56377 2.52019 4.77003 2.29638C4.97408 2.07496 5.2263 1.90352 5.50711 1.79524C6.75497 1.28409 8.04529 0.883436 9.36321 0.59788C9.84563 0.492788 10.3499 0.568697 10.78 0.811212C11.2108 1.05409 11.537 1.44708 11.6965 1.91518L11.6995 1.92385L12.6869 4.91136C12.8603 5.43574 12.5757 6.00135 12.0513 6.17468C11.5269 6.34801 10.9613 6.06343 10.788 5.53905L9.80308 2.55937C9.80201 2.55684 9.80012 2.55473 9.79772 2.55337Z"/>
<path d="M11 15.5C11.8284 15.5 12.5 14.8284 12.5 14C12.5 13.1716 11.8284 12.5 11 12.5C10.1716 12.5 9.5 13.1716 9.5 14C9.5 14.8284 10.1716 15.5 11 15.5Z"/>
<path d="M19 15.5C19.8284 15.5 20.5 14.8284 20.5 14C20.5 13.1716 19.8284 12.5 19 12.5C18.1716 12.5 17.5 13.1716 17.5 14C17.5 14.8284 18.1716 15.5 19 15.5Z"/>
<path fill-rule="evenodd" clip-rule="evenodd" d="M14.9927 5.99959C12.8249 5.98356 10.6678 6.30551 8.59914 6.95385C8.07213 7.11902 7.51101 6.8257 7.34584 6.29869C7.18067 5.77168 7.474 5.21056 8.00101 5.04539C10.2656 4.33563 12.6269 3.98281 15.0001 3.99959C17.3732 3.98281 19.7345 4.33563 21.9991 5.04539C22.5261 5.21056 22.8195 5.77168 22.6543 6.29869C22.4891 6.8257 21.928 7.11902 21.401 6.95385C19.3324 6.30551 17.1753 5.98356 15.0075 5.99959H14.9927Z"/>
<path fill-rule="evenodd" clip-rule="evenodd" d="M7.34584 17.7012C7.51101 17.1742 8.07213 16.8809 8.59914 17.046C10.6678 17.6944 12.8249 18.0163 14.9927 18.0003H15.0075C17.1753 18.0163 19.3324 17.6944 21.401 17.046C21.928 16.8809 22.4891 17.1742 22.6543 17.7012C22.8195 18.2282 22.5261 18.7893 21.9991 18.9545C19.7345 19.6643 17.3732 20.0171 15.0001 20.0003C12.6269 20.0171 10.2656 19.6643 8.00101 18.9545C7.474 18.7893 7.18067 18.2282 7.34584 17.7012Z"/>
<path fill-rule="evenodd" clip-rule="evenodd" d="M19.2199 0.811214C19.6504 0.568515 20.1551 0.492673 20.6378 0.598117C21.9554 0.883658 23.2453 1.28424 24.4928 1.79524C24.7736 1.90352 25.0259 2.07496 25.2299 2.29638C25.4362 2.52018 25.5875 2.78885 25.672 3.08115L29.9079 17.2255C30.0183 17.594 30.0209 17.9865 29.9152 18.3563C29.8095 18.7262 29.6 19.0581 29.3116 19.3126L29.3064 19.3171C27.2389 21.1161 24.4376 22.4777 21.2556 23.2577C20.8136 23.3703 20.3462 23.3265 19.9327 23.1336C19.521 22.9414 19.1882 22.6132 18.9903 22.2044L17.482 19.2129C17.2334 18.7197 17.4316 18.1184 17.9248 17.8698C18.4179 17.6211 19.0193 17.8194 19.2679 18.3125L20.7804 21.3125L20.7815 21.3147C23.7194 20.5943 26.2136 19.3571 27.9936 17.8083L28.65 18.5627L27.9884 17.8128C27.9902 17.8113 27.9915 17.8092 27.9921 17.8069C27.9928 17.8046 27.9928 17.8022 27.9921 17.7999L23.756 3.65465C23.7525 3.65325 23.7489 3.65182 23.7454 3.65037C22.6025 3.18149 21.4206 2.81412 20.2132 2.55253L20.211 2.55205C20.208 2.55139 20.2049 2.55186 20.2022 2.55337C20.1998 2.55473 20.1979 2.55684 20.1969 2.55937L19.212 5.53905C19.0386 6.06343 18.473 6.34801 17.9486 6.17468C17.4243 6.00135 17.1397 5.43574 17.313 4.91136L18.3034 1.91516C18.4629 1.44707 18.7892 1.0541 19.2199 0.811214Z"/>
<path fill-rule="evenodd" clip-rule="evenodd" d="M9.79772 2.55337C9.79504 2.55186 9.7919 2.55139 9.7889 2.55205L9.78673 2.55252C8.57939 2.81412 7.39743 3.18148 6.25453 3.65037C6.251 3.65182 6.24746 3.65324 6.24392 3.65465L2.00794 17.7996C2.00725 17.8019 2.00715 17.8046 2.00781 17.8069C2.0084 17.809 2.00951 17.8108 2.01103 17.8123C3.79072 19.3593 6.28311 20.5949 9.21846 21.3147L9.21954 21.3125L10.732 18.3125C10.9807 17.8194 11.582 17.6211 12.0752 17.8698C12.5683 18.1184 12.7665 18.7197 12.5179 19.2129L11.0097 22.2045C10.8118 22.6132 10.479 22.9414 10.0672 23.1336C9.65375 23.3265 9.18631 23.3703 8.74432 23.2577C5.56239 22.4777 2.76102 21.1161 0.693549 19.3171L0.68837 19.3126C0.399904 19.0581 0.190439 18.7262 0.0847573 18.3563C-0.0208975 17.9865 -0.0183814 17.5942 0.092004 17.2258C0.0920324 17.2257 0.0919757 17.2259 0.092004 17.2258L4.3279 3.08117C4.41243 2.78887 4.56377 2.52019 4.77003 2.29638C4.97408 2.07496 5.2263 1.90352 5.50711 1.79524C6.75497 1.28409 8.04529 0.883436 9.36321 0.59788C9.84563 0.492788 10.3499 0.568697 10.78 0.811212C11.2108 1.05409 11.537 1.44708 11.6965 1.91518L11.6995 1.92385L12.6869 4.91136C12.8603 5.43574 12.5757 6.00135 12.0513 6.17468C11.5269 6.34801 10.9613 6.06343 10.788 5.53905L9.80308 2.55937C9.80201 2.55684 9.80012 2.55473 9.79772 2.55337Z"/>
</symbol><symbol viewBox="0 0 30 20" id="eye" xmlns="http://www.w3.org/2000/svg">
<path fill-rule="evenodd" clip-rule="evenodd" d="M3.54289 4.79289C5.92672 2.40907 9.66742 0 15 0C20.3326 0 24.0733 2.40907 26.4571 4.79289C27.6461 5.98192 28.5035 7.16921 29.065 8.06094C29.3462 8.50758 29.5546 8.88234 29.6944 9.14927C29.7644 9.28281 29.8173 9.38958 29.8536 9.46511C29.8718 9.50288 29.8859 9.53287 29.8959 9.55451L29.9079 9.58064L29.9116 9.58889L29.9129 9.59179L29.9134 9.59293C29.9136 9.59341 29.9138 9.59386 29 10C29.9138 10.4061 29.9136 10.4066 29.9134 10.4071L29.9129 10.4082L29.9116 10.4111L29.9079 10.4194L29.8959 10.4455C29.8859 10.4671 29.8718 10.4971 29.8536 10.5349C29.8173 10.6104 29.7644 10.7172 29.6944 10.8507C29.5546 11.1177 29.3462 11.4924 29.065 11.9391C28.5035 12.8308 27.6461 14.0181 26.4571 15.2071C24.0733 17.5909 20.3326 20 15 20C9.66742 20 5.92672 17.5909 3.54289 15.2071C2.35387 14.0181 1.49647 12.8308 0.935017 11.9391C0.653799 11.4924 0.445396 11.1177 0.305575 10.8507C0.235627 10.7172 0.182729 10.6104 0.146362 10.5349C0.128175 10.4971 0.114111 10.4671 0.104106 10.4455L0.0921312 10.4194L0.088409 10.4111L0.0871114 10.4082L0.0866031 10.4071C0.0863881 10.4066 0.0861884 10.4061 1 10C0.0861884 9.59386 0.0863881 9.59341 0.0866031 9.59293L0.0871114 9.59179L0.088409 9.58889L0.0921312 9.58064L0.104106 9.55451C0.114111 9.53287 0.128175 9.50288 0.146362 9.46511C0.182729 9.38958 0.235627 9.28281 0.305575 9.14927C0.445396 8.88234 0.653799 8.50758 0.935017 8.06094C1.49647 7.16921 2.35387 5.98192 3.54289 4.79289ZM1 10L0.0861884 9.59386C-0.0287295 9.85243 -0.0287295 10.1476 0.0861884 10.4061L1 10ZM2.11811 10C2.23576 10.2204 2.4047 10.5196 2.62748 10.8734C3.12853 11.6692 3.89613 12.7319 4.95711 13.7929C7.07328 15.9091 10.3326 18 15 18C19.6674 18 22.9267 15.9091 25.0429 13.7929C26.1039 12.7319 26.8715 11.6692 27.3725 10.8734C27.5953 10.5196 27.7642 10.2204 27.8819 10C27.7642 9.77963 27.5953 9.48039 27.3725 9.12656C26.8715 8.33079 26.1039 7.26808 25.0429 6.20711C22.9267 4.09093 19.6674 2 15 2C10.3326 2 7.07328 4.09093 4.95711 6.20711C3.89613 7.26808 3.12853 8.33079 2.62748 9.12656C2.4047 9.48039 2.23576 9.77963 2.11811 10ZM29 10L29.9138 10.4061C30.0287 10.1476 30.0287 9.85243 29.9138 9.59386L29 10Z"/>
<path fill-rule="evenodd" clip-rule="evenodd" d="M15 6C12.7909 6 11 7.79086 11 10C11 12.2091 12.7909 14 15 14C17.2091 14 19 12.2091 19 10C19 7.79086 17.2091 6 15 6ZM9 10C9 6.68629 11.6863 4 15 4C18.3137 4 21 6.68629 21 10C21 13.3137 18.3137 16 15 16C11.6863 16 9 13.3137 9 10Z"/>
</symbol><symbol viewBox="0 0 30 24" id="eyeslash" xmlns="http://www.w3.org/2000/svg">
<path fill-rule="evenodd" clip-rule="evenodd" d="M4.32733 0.260067C4.73599 -0.11144 5.36844 -0.0813234 5.73995 0.327334L25.7399 22.3273C26.1115 22.736 26.0813 23.3684 25.6727 23.7399C25.264 24.1115 24.6316 24.0813 24.2601 23.6727L4.26007 1.67268C3.88856 1.26402 3.91868 0.631574 4.32733 0.260067Z"/>
<path fill-rule="evenodd" clip-rule="evenodd" d="M12.3775 7.6272C12.7489 8.0359 12.7188 8.66834 12.3101 9.03981C11.7126 9.58283 11.2935 10.2939 11.1078 11.0796C10.922 11.8653 10.9784 12.6888 11.2695 13.4418C11.5605 14.1949 12.0726 14.8422 12.7385 15.2988C13.4043 15.7553 14.1927 15.9997 15.0001 15.9998L15.0038 15.9998C15.9968 16.0036 16.9548 15.6332 17.687 14.9624C18.0942 14.5894 18.7268 14.6171 19.0998 15.0243C19.4729 15.4316 19.4452 16.0641 19.0379 16.4372C17.9355 17.4472 16.4931 18.005 14.998 17.9998C13.7876 17.9993 12.6057 17.6328 11.6075 16.9483C10.6087 16.2634 9.84052 15.2924 9.40395 14.1628C8.96737 13.0333 8.88283 11.798 9.16142 10.6195C9.44001 9.44098 10.0687 8.37434 10.9648 7.55981C11.3735 7.18834 12.006 7.21851 12.3775 7.6272Z"/>
<path fill-rule="evenodd" clip-rule="evenodd" d="M9.14277 4.1247C9.39169 4.61771 9.19381 5.21916 8.70081 5.46808C6.32392 6.66817 4.62068 8.40663 3.50654 9.86153C2.95114 10.5868 2.54771 11.2344 2.28514 11.6964C2.22094 11.8094 2.16526 11.9111 2.11795 11.9999C2.23561 12.2203 2.40464 12.5198 2.62758 12.8738C3.12862 13.6696 3.89623 14.7323 4.9572 15.7933C7.07338 17.9095 10.3327 20.0004 15.0001 20.0004H15.0082C17.1925 20.0182 19.3494 19.515 21.3002 18.5323C21.7935 18.2839 22.3947 18.4823 22.6432 18.9755C22.8916 19.4688 22.6932 20.0701 22.2 20.3185C19.9664 21.4436 17.4968 22.0202 14.9959 22.0004C9.66557 21.9992 5.92619 19.5907 3.54299 17.2075C2.35396 16.0185 1.49657 14.8312 0.935114 13.9395C0.653895 13.4928 0.445493 13.1181 0.305671 12.8511C0.235723 12.7176 0.182825 12.6108 0.146458 12.5353C0.128271 12.4975 0.114207 12.4675 0.104203 12.4459L0.0922277 12.4198L0.0885055 12.4115L0.087208 12.4086L0.0866997 12.4075C0.0864846 12.407 0.086285 12.4066 1.0001 12.0004C0.0858967 11.5951 0.0860401 11.5948 0.0861918 11.5945L0.0873788 11.5918L0.0896672 11.5867L0.0966732 11.5713C0.102427 11.5586 0.110352 11.5415 0.120475 11.5199C0.140718 11.4769 0.169765 11.4163 0.207823 11.3402C0.283913 11.1878 0.396181 10.9725 0.546298 10.7083C0.846229 10.1805 1.29906 9.45465 1.91865 8.64555C3.15452 7.03169 5.07627 5.05765 7.79939 3.68274C8.29239 3.43382 8.89385 3.63169 9.14277 4.1247ZM1.0001 12.0004L0.0861918 11.5945C-0.0283436 11.8529 -0.0284976 12.1483 0.086285 12.4066L1.0001 12.0004Z"/>
<path fill-rule="evenodd" clip-rule="evenodd" d="M12.2474 2.22625C13.1573 2.07394 14.0784 1.99826 15.001 2.00003C15.0013 2.00003 15.0007 2.00003 15.001 2.00003L15 3.00003V2.00003C15.0003 2.00003 15.0007 2.00003 15.001 2.00003C20.3331 2.00033 24.0734 4.40925 26.4571 6.79292C27.6461 7.98195 28.5035 9.16924 29.065 10.061C29.3462 10.5076 29.5546 10.8824 29.6944 11.1493C29.7644 11.2828 29.8173 11.3896 29.8536 11.4651C29.8718 11.5029 29.8859 11.5329 29.8959 11.5545L29.9079 11.5807L29.9116 11.5889L29.9129 11.5918L29.9134 11.593C29.9136 11.5934 29.9138 11.5939 29 12C28.0862 11.5939 28.0863 11.5937 28.0864 11.5935L28.0788 11.61C28.0717 11.6253 28.0599 11.6503 28.0435 11.6842C28.0105 11.7522 27.9586 11.856 27.8873 11.99C27.8855 11.9933 27.8837 11.9967 27.8819 12C27.7643 11.7797 27.5953 11.4804 27.3725 11.1266C26.8715 10.3308 26.1039 9.26811 25.0429 8.20714C22.9267 6.09096 19.6674 4.00003 15 4.00003H14.998C14.1871 3.99843 13.3774 4.06492 12.5776 4.19881C12.0329 4.28999 11.5174 3.92233 11.4262 3.37763C11.3351 2.83292 11.7027 2.31743 12.2474 2.22625ZM29 12L29.9138 12.4062C30.0287 12.1476 30.0287 11.8525 29.9138 11.5939L29 12ZM27.8819 12C27.739 12.2677 27.5207 12.6513 27.2224 13.1074C26.617 14.0333 25.6904 15.2454 24.4083 16.3922C23.9967 16.7604 23.9615 17.3926 24.3297 17.8042C24.6979 18.2159 25.3301 18.2511 25.7417 17.8829C27.1846 16.5922 28.2205 15.2355 28.8963 14.202C29.2349 13.6842 29.4852 13.2444 29.6526 12.93C29.7363 12.7727 29.7995 12.6466 29.8428 12.5574C29.8644 12.5128 29.8811 12.4774 29.8929 12.4519L29.907 12.4213L29.9113 12.4118L29.9128 12.4085L29.9134 12.4072C29.9135 12.407 29.9138 12.4062 29 12C28.0862 12.4062 28.0864 12.4065 28.0865 12.4069L28.0806 12.3939C28.0748 12.3815 28.0652 12.3609 28.0516 12.3328C28.0245 12.2765 27.9817 12.1899 27.9228 12.0773C27.9099 12.0528 27.8963 12.027 27.8819 12Z"/>
<path fill-rule="evenodd" clip-rule="evenodd" d="M14.9549 6.90191C15.0577 6.35928 15.581 6.00274 16.1236 6.10555C17.4001 6.34742 18.5633 6.99792 19.4377 7.9589C20.312 8.91987 20.8501 10.1392 20.9706 11.4328C21.0219 11.9827 20.6176 12.47 20.0677 12.5213C19.5178 12.5725 19.0305 12.1683 18.9793 11.6184C18.899 10.7569 18.5406 9.94485 17.9583 9.30486C17.376 8.66488 16.6014 8.23167 15.7513 8.07059C15.2086 7.96778 14.8521 7.44454 14.9549 6.90191Z"/>
</symbol><symbol viewBox="0 0 26 24" id="gift" xmlns="http://www.w3.org/2000/svg">
<path fill-rule="evenodd" clip-rule="evenodd" d="M3 8.4502C3.55228 8.4502 4 8.89791 4 9.4502V22.0002H22V9.4502C22 8.89791 22.4477 8.4502 23 8.4502C23.5523 8.4502 24 8.89791 24 9.4502V22.0002C24 22.5306 23.7893 23.0393 23.4142 23.4144C23.0391 23.7895 22.5304 24.0002 22 24.0002H4C3.46957 24.0002 2.96086 23.7895 2.58579 23.4144C2.21071 23.0393 2 22.5306 2 22.0002V9.4502C2 8.89791 2.44772 8.4502 3 8.4502Z"/>
<path fill-rule="evenodd" clip-rule="evenodd" d="M0 1C0 0.447715 0.447715 0 1 0H25C25.5523 0 26 0.447715 26 1C26 1.55228 25.5523 2 25 2H1C0.447715 2 0 1.55228 0 1Z"/>
<path fill-rule="evenodd" clip-rule="evenodd" d="M1 3C1.55228 3 2 3.44772 2 4V6C2 6.79565 2.31607 7.55871 2.87868 8.12132C3.44129 8.68393 4.20435 9 5 9C5.79565 9 6.55871 8.68393 7.12132 8.12132C7.68393 7.55871 8 6.79565 8 6V4C8 3.44772 8.44772 3 9 3C9.55229 3 10 3.44772 10 4V6C10 7.32608 9.47322 8.59785 8.53553 9.53553C7.59785 10.4732 6.32608 11 5 11C3.67392 11 2.40215 10.4732 1.46447 9.53553C0.526784 8.59785 0 7.32608 0 6V4C0 3.44772 0.447715 3 1 3Z"/>
<path fill-rule="evenodd" clip-rule="evenodd" d="M9 3C9.55228 3 10 3.44772 10 4V6C10 6.79565 10.3161 7.55871 10.8787 8.12132C11.4413 8.68393 12.2044 9 13 9C13.7956 9 14.5587 8.68393 15.1213 8.12132C15.6839 7.55871 16 6.79565 16 6V4C16 3.44772 16.4477 3 17 3C17.5523 3 18 3.44772 18 4V6C18 7.32608 17.4732 8.59785 16.5355 9.53553C15.5979 10.4732 14.3261 11 13 11C11.6739 11 10.4021 10.4732 9.46447 9.53553C8.52678 8.59785 8 7.32608 8 6V4C8 3.44772 8.44772 3 9 3Z"/>
<path fill-rule="evenodd" clip-rule="evenodd" d="M17 3C17.5523 3 18 3.44772 18 4V6C18 6.79565 18.3161 7.55871 18.8787 8.12132C19.4413 8.68393 20.2044 9 21 9C21.7956 9 22.5587 8.68393 23.1213 8.12132C23.6839 7.55871 24 6.79565 24 6V4C24 3.44772 24.4477 3 25 3C25.5523 3 26 3.44772 26 4V6C26 7.32608 25.4732 8.59785 24.5355 9.53553C23.5979 10.4732 22.3261 11 21 11C19.6739 11 18.4021 10.4732 17.4645 9.53553C16.5268 8.59785 16 7.32608 16 6V4C16 3.44772 16.4477 3 17 3Z"/>
</symbol><symbol viewBox="0 0 26 26" id="global" xmlns="http://www.w3.org/2000/svg">
<path fill-rule="evenodd" clip-rule="evenodd" d="M13 2C6.92487 2 2 6.92487 2 13C2 19.0751 6.92487 24 13 24C19.0751 24 24 19.0751 24 13C24 6.92487 19.0751 2 13 2ZM0 13C0 5.8203 5.8203 0 13 0C20.1797 0 26 5.8203 26 13C26 20.1797 20.1797 26 13 26C5.8203 26 0 20.1797 0 13Z"/>
<path fill-rule="evenodd" clip-rule="evenodd" d="M0.6875 9C0.6875 8.44772 1.13522 8 1.6875 8H24.3125C24.8648 8 25.3125 8.44772 25.3125 9C25.3125 9.55228 24.8648 10 24.3125 10H1.6875C1.13522 10 0.6875 9.55228 0.6875 9Z"/>
<path fill-rule="evenodd" clip-rule="evenodd" d="M0.6875 17C0.6875 16.4477 1.13522 16 1.6875 16H24.3125C24.8648 16 25.3125 16.4477 25.3125 17C25.3125 17.5523 24.8648 18 24.3125 18H1.6875C1.13522 18 0.6875 17.5523 0.6875 17Z"/>
<path fill-rule="evenodd" clip-rule="evenodd" d="M10.3837 5.13841C9.54386 7.09946 9 9.87834 9 13.0002C9 16.1221 9.54386 18.9009 10.3837 20.862C10.8044 21.8443 11.2797 22.5753 11.7565 23.0462C12.229 23.5129 12.6481 23.6752 13 23.6752C13.3519 23.6752 13.771 23.5129 14.2435 23.0462C14.7203 22.5753 15.1956 21.8443 15.6163 20.862C16.4561 18.9009 17 16.1221 17 13.0002C17 9.87834 16.4561 7.09946 15.6163 5.13841C15.1956 4.15609 14.7203 3.42507 14.2435 2.95417C13.771 2.4875 13.3519 2.3252 13 2.3252C12.6481 2.3252 12.229 2.4875 11.7565 2.95417C11.2797 3.42507 10.8044 4.15609 10.3837 5.13841ZM10.3511 1.53118C11.075 0.816273 11.9712 0.325195 13 0.325195C14.0288 0.325195 14.9251 0.816273 15.6489 1.53118C16.3685 2.24186 16.9707 3.2206 17.4548 4.35104C18.4246 6.61551 19 9.67413 19 13.0002C19 16.3263 18.4246 19.3849 17.4548 21.6493C16.9707 22.7798 16.3685 23.7585 15.6489 24.4692C14.925 25.1841 14.0288 25.6752 13 25.6752C11.9712 25.6752 11.075 25.1841 10.3511 24.4692C9.6315 23.7585 9.02935 22.7798 8.54522 21.6493C7.57543 19.3849 7 16.3263 7 13.0002C7 9.67413 7.57543 6.61551 8.54522 4.35104C9.02935 3.2206 9.6315 2.24186 10.3511 1.53118Z"/>
</symbol><symbol viewBox="0 0 26 26" id="instagram" xmlns="http://www.w3.org/2000/svg">
<path fill-rule="evenodd" clip-rule="evenodd" d="M13 9C10.7909 9 9 10.7909 9 13C9 15.2091 10.7909 17 13 17C15.2091 17 17 15.2091 17 13C17 10.7909 15.2091 9 13 9ZM7 13C7 9.68629 9.68629 7 13 7C16.3137 7 19 9.68629 19 13C19 16.3137 16.3137 19 13 19C9.68629 19 7 16.3137 7 13Z"/>
<path fill-rule="evenodd" clip-rule="evenodd" d="M7.5 2.5C4.73858 2.5 2.5 4.73858 2.5 7.5V18.5C2.5 21.2614 4.73858 23.5 7.5 23.5H18.5C21.2614 23.5 23.5 21.2614 23.5 18.5V7.5C23.5 4.73858 21.2614 2.5 18.5 2.5H7.5ZM0.5 7.5C0.5 3.63401 3.63401 0.5 7.5 0.5H18.5C22.366 0.5 25.5 3.63401 25.5 7.5V18.5C25.5 22.366 22.366 25.5 18.5 25.5H7.5C3.63401 25.5 0.5 22.366 0.5 18.5V7.5Z"/>
<path d="M19.5 8C20.3284 8 21 7.32843 21 6.5C21 5.67157 20.3284 5 19.5 5C18.6716 5 18 5.67157 18 6.5C18 7.32843 18.6716 8 19.5 8Z"/>
</symbol><symbol viewBox="0 0 26 20" id="letter" xmlns="http://www.w3.org/2000/svg">
<path fill-rule="evenodd" clip-rule="evenodd" d="M0 1C0 0.447715 0.447715 0 1 0H25C25.5523 0 26 0.447715 26 1V18C26 18.5304 25.7893 19.0391 25.4142 19.4142C25.0391 19.7893 24.5304 20 24 20H2C1.46957 20 0.960861 19.7893 0.585787 19.4142C0.210714 19.0391 0 18.5304 0 18V1ZM2 2V18H24V2H2Z"/>
<path fill-rule="evenodd" clip-rule="evenodd" d="M0.262852 0.324281C0.636044 -0.0828378 1.26861 -0.110341 1.67573 0.262852L13 10.6434L24.3243 0.262852C24.7314 -0.110341 25.364 -0.0828378 25.7372 0.324281C26.1104 0.7314 26.0828 1.36397 25.6757 1.73716L13.6757 12.7372C13.2934 13.0876 12.7066 13.0876 12.3243 12.7372L0.324281 1.73716C-0.0828378 1.36397 -0.110341 0.7314 0.262852 0.324281Z"/>
</symbol><symbol viewBox="0 0 24 18" id="list" xmlns="http://www.w3.org/2000/svg">
<path fill-rule="evenodd" clip-rule="evenodd" d="M0 9C0 8.44772 0.447715 8 1 8H23C23.5523 8 24 8.44772 24 9C24 9.55228 23.5523 10 23 10H1C0.447715 10 0 9.55228 0 9Z"/>
<path fill-rule="evenodd" clip-rule="evenodd" d="M0 1C0 0.447715 0.447715 0 1 0H16C16.5523 0 17 0.447715 17 1C17 1.55228 16.5523 2 16 2H1C0.447715 2 0 1.55228 0 1Z"/>
<path fill-rule="evenodd" clip-rule="evenodd" d="M0 17C0 16.4477 0.447715 16 1 16H16C16.5523 16 17 16.4477 17 17C17 17.5523 16.5523 18 16 18H1C0.447715 18 0 17.5523 0 17Z"/>
</symbol><symbol viewBox="0 0 24 27" id="lock" xmlns="http://www.w3.org/2000/svg">
<path fill-rule="evenodd" clip-rule="evenodd" d="M12 15C11.1716 15 10.5 15.6716 10.5 16.5C10.5 17.3284 11.1716 18 12 18C12.8284 18 13.5 17.3284 13.5 16.5C13.5 15.6716 12.8284 15 12 15ZM8.5 16.5C8.5 14.567 10.067 13 12 13C13.933 13 15.5 14.567 15.5 16.5C15.5 18.433 13.933 20 12 20C10.067 20 8.5 18.433 8.5 16.5Z"/>
<path fill-rule="evenodd" clip-rule="evenodd" d="M12 18C12.5523 18 13 18.4477 13 19V22C13 22.5523 12.5523 23 12 23C11.4477 23 11 22.5523 11 22V19C11 18.4477 11.4477 18 12 18Z"/>
<path fill-rule="evenodd" clip-rule="evenodd" d="M0 11C0 9.89543 0.89543 9 2 9H22C23.1046 9 24 9.89543 24 11V25C24 26.1046 23.1046 27 22 27H2C0.89543 27 0 26.1046 0 25V11ZM22 11H2V25H22V11Z"/>
<path fill-rule="evenodd" clip-rule="evenodd" d="M12 2C11.0717 2 10.1815 2.36875 9.52513 3.02513C8.86875 3.6815 8.5 4.57174 8.5 5.5V10C8.5 10.5523 8.05228 11 7.5 11C6.94772 11 6.5 10.5523 6.5 10V5.5C6.5 4.04131 7.07946 2.64236 8.11091 1.61091C9.14236 0.579463 10.5413 0 12 0C13.4587 0 14.8576 0.579463 15.8891 1.61091C16.9205 2.64236 17.5 4.04131 17.5 5.5V10C17.5 10.5523 17.0523 11 16.5 11C15.9477 11 15.5 10.5523 15.5 10V5.5C15.5 4.57174 15.1313 3.6815 14.4749 3.02513C13.8185 2.36875 12.9283 2 12 2Z"/>
</symbol><symbol viewBox="0 0 86 80" id="magic" xmlns="http://www.w3.org/2000/svg">
<path fill-rule="evenodd" clip-rule="evenodd" d="M74.375 38.5C75.2034 38.5 75.875 39.1716 75.875 40V58.75C75.875 59.5784 75.2034 60.25 74.375 60.25C73.5466 60.25 72.875 59.5784 72.875 58.75V40C72.875 39.1716 73.5466 38.5 74.375 38.5Z"/>
<path fill-rule="evenodd" clip-rule="evenodd" d="M63.5 49.375C63.5 48.5466 64.1716 47.875 65 47.875H83.75C84.5784 47.875 85.25 48.5466 85.25 49.375C85.25 50.2034 84.5784 50.875 83.75 50.875H65C64.1716 50.875 63.5 50.2034 63.5 49.375Z"/>
<path fill-rule="evenodd" clip-rule="evenodd" d="M22.8125 4.125C23.6409 4.125 24.3125 4.79657 24.3125 5.625V21.25C24.3125 22.0784 23.6409 22.75 22.8125 22.75C21.9841 22.75 21.3125 22.0784 21.3125 21.25V5.625C21.3125 4.79657 21.9841 4.125 22.8125 4.125Z"/>
<path fill-rule="evenodd" clip-rule="evenodd" d="M13.5 13.4375C13.5 12.6091 14.1716 11.9375 15 11.9375H30.625C31.4534 11.9375 32.125 12.6091 32.125 13.4375C32.125 14.2659 31.4534 14.9375 30.625 14.9375H15C14.1716 14.9375 13.5 14.2659 13.5 13.4375Z"/>
<path fill-rule="evenodd" clip-rule="evenodd" d="M55.625 60.375C56.4534 60.375 57.125 61.0466 57.125 61.875V74.375C57.125 75.2034 56.4534 75.875 55.625 75.875C54.7966 75.875 54.125 75.2034 54.125 74.375V61.875C54.125 61.0466 54.7966 60.375 55.625 60.375Z"/>
<path fill-rule="evenodd" clip-rule="evenodd" d="M47.875 68.125C47.875 67.2966 48.5466 66.625 49.375 66.625H61.875C62.7034 66.625 63.375 67.2966 63.375 68.125C63.375 68.9534 62.7034 69.625 61.875 69.625H49.375C48.5466 69.625 47.875 68.9534 47.875 68.125Z"/>
<path fill-rule="evenodd" clip-rule="evenodd" d="M5.79501 63.848C5.16041 64.4826 5.16041 65.5115 5.79501 66.1461L13.8743 74.2254C14.5089 74.86 15.5377 74.86 16.1724 74.2254L74.2601 16.1376C74.8947 15.503 74.8947 14.4742 74.2601 13.8396L66.1808 5.76031C65.5462 5.1257 64.5173 5.1257 63.8827 5.76031L5.79501 63.848ZM3.67369 68.2674C1.86751 66.4613 1.86751 63.5329 3.67369 61.7267L61.7614 3.63899C63.5676 1.83281 66.496 1.83281 68.3021 3.63899L76.3814 11.7182C78.1876 13.5244 78.1876 16.4528 76.3814 18.259L18.2937 76.3467C16.4875 78.1529 13.5591 78.1529 11.7529 76.3467L3.67369 68.2674Z"/>
<path fill-rule="evenodd" clip-rule="evenodd" d="M45.1893 20.1893C45.7751 19.6036 46.7249 19.6036 47.3107 20.1893L59.8107 32.6893C60.3964 33.2751 60.3964 34.2249 59.8107 34.8107C59.2249 35.3964 58.2751 35.3964 57.6893 34.8107L45.1893 22.3107C44.6036 21.7249 44.6036 20.7751 45.1893 20.1893Z"/>
</symbol><symbol viewBox="0 0 76 82" id="music" xmlns="http://www.w3.org/2000/svg">
<path fill-rule="evenodd" clip-rule="evenodd" d="M63.3125 46.75C58.1003 46.75 53.875 50.9753 53.875 56.1875C53.875 61.3997 58.1003 65.625 63.3125 65.625C68.5247 65.625 72.75 61.3997 72.75 56.1875C72.75 50.9753 68.5247 46.75 63.3125 46.75ZM50.875 56.1875C50.875 49.3185 56.4435 43.75 63.3125 43.75C70.1815 43.75 75.75 49.3185 75.75 56.1875C75.75 63.0565 70.1815 68.625 63.3125 68.625C56.4435 68.625 50.875 63.0565 50.875 56.1875Z"/>
<path fill-rule="evenodd" clip-rule="evenodd" d="M13.3125 59.25C8.10031 59.25 3.875 63.4753 3.875 68.6875C3.875 73.8997 8.10031 78.125 13.3125 78.125C18.5247 78.125 22.75 73.8997 22.75 68.6875C22.75 63.4753 18.5247 59.25 13.3125 59.25ZM0.875 68.6875C0.875 61.8185 6.44346 56.25 13.3125 56.25C20.1815 56.25 25.75 61.8185 25.75 68.6875C25.75 75.5565 20.1815 81.125 13.3125 81.125C6.44346 81.125 0.875 75.5565 0.875 68.6875Z"/>
<path fill-rule="evenodd" clip-rule="evenodd" d="M75.7053 19.8866C75.9062 20.6902 75.4176 21.5046 74.6139 21.7056L24.6139 34.2056C23.8102 34.4065 22.9958 33.9179 22.7949 33.1142C22.594 32.3105 23.0826 31.4961 23.8863 31.2951L73.8863 18.7951C74.69 18.5942 75.5044 19.0829 75.7053 19.8866Z"/>
<path fill-rule="evenodd" clip-rule="evenodd" d="M75.1731 0.317705C75.5372 0.601966 75.75 1.03811 75.75 1.50001V56.1875C75.75 57.0159 75.0784 57.6875 74.25 57.6875C73.4216 57.6875 72.75 57.0159 72.75 56.1875V3.42118L25.75 15.1712V68.6875C25.75 69.5159 25.0784 70.1875 24.25 70.1875C23.4216 70.1875 22.75 69.5159 22.75 68.6875V14C22.75 13.3117 23.2184 12.7117 23.8862 12.5448L73.8862 0.0447998C74.3343 -0.0672281 74.809 0.0334448 75.1731 0.317705Z"/>
</symbol><symbol viewBox="0 0 84 76" id="paint" xmlns="http://www.w3.org/2000/svg">
<path fill-rule="evenodd" clip-rule="evenodd" d="M21.5903 33.9104C25.576 32.2595 29.9618 31.8275 34.193 32.6691C38.4242 33.5108 42.3108 35.5882 45.3613 38.6387C48.4119 41.6893 50.4893 45.5759 51.331 49.8071C52.1726 54.0383 51.7406 58.4241 50.0897 62.4098C48.4388 66.3955 45.643 69.8022 42.056 72.1989C38.4689 74.5957 34.2517 75.875 29.9376 75.875H1.81258C1.17555 75.875 0.608004 75.4726 0.397142 74.8715C0.186863 74.2721 0.377045 73.6054 0.87142 73.207C0.872404 73.2062 0.873389 73.2054 0.874375 73.2046L0.877654 73.2019C0.8856 73.1953 0.900626 73.1827 0.922264 73.1641C0.965547 73.1269 1.03524 73.0656 1.1276 72.9798C1.31238 72.8082 1.58755 72.5391 1.92338 72.1697C2.59526 71.4306 3.50793 70.2923 4.42593 68.7317C6.25683 65.6191 8.12508 60.8011 8.12508 54.0625C8.12508 49.7484 9.40437 45.5312 11.8012 41.9441C14.1979 38.3571 17.6046 35.5613 21.5903 33.9104ZM5.24205 72.875H29.9376C33.6583 72.875 37.2955 71.7717 40.3892 69.7045C43.4829 67.6374 45.8942 64.6993 47.3181 61.2617C48.7419 57.8242 49.1145 54.0416 48.3886 50.3924C47.6627 46.7431 45.871 43.391 43.24 40.7601C40.6091 38.1291 37.257 36.3374 33.6077 35.6115C29.9585 34.8856 26.1759 35.2582 22.7384 36.682C19.3008 38.1059 16.3627 40.5171 14.2956 43.6108C12.2284 46.7045 11.1251 50.3417 11.1251 54.0625C11.1251 61.3864 9.08709 66.7246 7.01174 70.2527C6.40684 71.281 5.80013 72.1534 5.24205 72.875Z"/>
<path fill-rule="evenodd" clip-rule="evenodd" d="M57.1776 16.0736C49.4056 23.0319 42.8343 31.2608 39.1106 36.2839C38.6173 36.9494 37.6778 37.089 37.0123 36.5956C36.3468 36.1023 36.2073 35.1628 36.7006 34.4973C40.4769 29.4033 47.1869 20.9916 55.1766 13.8385C63.0986 6.746 72.5849 0.609375 81.89 0.609375C82.7184 0.609375 83.39 1.28095 83.39 2.10938C83.39 11.4145 77.2534 20.9008 70.1609 28.8228C63.0078 36.8124 54.5961 43.5225 49.502 47.2988C48.8365 47.7921 47.8971 47.6525 47.4037 46.987C46.9104 46.3215 47.0499 45.3821 47.7155 44.8887C52.7386 41.165 60.9675 34.5938 67.9258 26.8217C74.4954 19.4838 79.6865 11.3432 80.3241 3.67528C72.6562 4.31285 64.5156 9.50399 57.1776 16.0736Z"/>
<path fill-rule="evenodd" clip-rule="evenodd" d="M44.6468 24.6537C45.054 23.9322 45.9689 23.6774 46.6904 24.0846C52.2213 27.206 56.7943 31.779 59.9157 37.3099C60.3229 38.0314 60.0681 38.9463 59.3466 39.3535C58.6252 39.7606 57.7102 39.5058 57.3031 38.7844C54.4503 33.7295 50.2708 29.55 45.2159 26.6972C44.4944 26.29 44.2397 25.3751 44.6468 24.6537Z"/>
</symbol><symbol viewBox="0 0 92 72" id="planet" xmlns="http://www.w3.org/2000/svg">
<path fill-rule="evenodd" clip-rule="evenodd" d="M46 3.125C27.8436 3.125 13.125 17.8436 13.125 36C13.125 54.1564 27.8436 68.875 46 68.875C64.1564 68.875 78.875 54.1564 78.875 36C78.875 17.8436 64.1564 3.125 46 3.125ZM10.125 36C10.125 16.1868 26.1868 0.125 46 0.125C65.8132 0.125 81.875 16.1868 81.875 36C81.875 55.8132 65.8132 71.875 46 71.875C26.1868 71.875 10.125 55.8132 10.125 36Z"/>
<path fill-rule="evenodd" clip-rule="evenodd" d="M81.6984 9.10977C78.2386 8.90814 73.6784 9.54014 68.3496 11.0022C67.5507 11.2214 66.7253 10.7515 66.5061 9.95255C66.287 9.15365 66.7569 8.32832 67.5558 8.10913C73.0473 6.60245 77.9597 5.88679 81.873 6.11485C85.72 6.33905 89.0165 7.51136 90.6147 10.2437L90.6198 10.2524C92.0435 12.7245 91.6586 15.7664 90.3209 18.8281C88.9681 21.9242 86.5159 25.3532 83.2452 28.9023C76.6911 36.0142 66.6091 43.867 54.5615 50.816C42.5147 57.7646 30.6732 62.5695 21.2358 64.691C16.5262 65.7498 12.3294 66.1601 8.96927 65.7839C5.6458 65.4118 2.81728 64.2238 1.38236 61.7547L1.37916 61.7491C-0.197474 59.0094 0.437734 55.567 2.1636 52.1255C3.92046 48.6221 6.99354 44.7211 11.0379 40.7164C11.6266 40.1335 12.5763 40.1381 13.1592 40.7268C13.7421 41.3155 13.7374 42.2652 13.1487 42.8481C9.22434 46.734 6.39899 50.3721 4.8453 53.4703C3.26166 56.6282 3.17329 58.849 3.97775 60.25C4.71161 61.5101 6.37011 62.4742 9.30305 62.8025C12.2015 63.127 16.0345 62.7854 20.5778 61.7641C29.6462 59.7255 41.2032 55.0577 53.0626 48.2173C64.9213 41.3772 74.7417 33.7026 81.0391 26.8692C84.1942 23.4456 86.405 20.2974 87.5718 17.627C88.7521 14.9255 88.7447 13.0127 88.0228 11.7543C87.1976 10.348 85.2211 9.31506 81.6984 9.10977Z"/>
</symbol><symbol viewBox="0 0 24 24" id="plus" xmlns="http://www.w3.org/2000/svg">
<path fill-rule="evenodd" clip-rule="evenodd" d="M0 12C0 11.4477 0.447715 11 1 11H23C23.5523 11 24 11.4477 24 12C24 12.5523 23.5523 13 23 13H1C0.447715 13 0 12.5523 0 12Z"/>
<path fill-rule="evenodd" clip-rule="evenodd" d="M12 0C12.5523 0 13 0.447715 13 1V23C13 23.5523 12.5523 24 12 24C11.4477 24 11 23.5523 11 23V1C11 0.447715 11.4477 0 12 0Z"/>
</symbol><symbol viewBox="0 0 26 26" id="rocketlaunch" xmlns="http://www.w3.org/2000/svg">
<path fill-rule="evenodd" clip-rule="evenodd" d="M6.87284 16.9188C7.04888 17.4423 6.76722 18.0094 6.24374 18.1854C4.54867 18.7554 3.64783 20.1784 3.16596 21.6254C2.97462 22.2 2.85902 22.7531 2.78956 23.2105C3.24694 23.1411 3.80009 23.0255 4.37468 22.8341C5.82168 22.3523 7.24463 21.4514 7.81466 19.7563C7.9907 19.2329 8.55777 18.9512 9.08124 19.1272C9.60472 19.3033 9.88638 19.8703 9.71034 20.3938C8.85536 22.9362 6.74082 24.1542 5.00657 24.7317C4.13049 25.0234 3.31032 25.1674 2.71168 25.2392C2.41091 25.2753 2.16226 25.2936 1.98561 25.3029C1.89719 25.3076 1.82652 25.31 1.77608 25.3112C1.75085 25.3119 1.73066 25.3122 1.7158 25.3124L1.69754 25.3125L1.69148 25.3126L1.68923 25.3126L1.6883 25.3126C1.68789 25.3126 1.6875 25.3126 1.6875 24.3126C0.6875 24.3126 0.6875 24.3122 0.6875 24.3118L0.687501 24.3108L0.687506 24.3086L0.687534 24.3025L0.687702 24.2843C0.687881 24.2694 0.688216 24.2492 0.688842 24.224C0.690092 24.1736 0.692505 24.1029 0.697158 24.0145C0.706454 23.8378 0.72475 23.5892 0.760829 23.2884C0.83264 22.6898 0.976669 21.8696 1.26841 20.9935C1.84592 19.2593 3.06383 17.1447 5.60626 16.2897C6.12974 16.1137 6.6968 16.3954 6.87284 16.9188ZM1.6875 24.3126H0.6875C0.6875 24.8649 1.13522 25.3126 1.6875 25.3126V24.3126Z"/>
<path fill-rule="evenodd" clip-rule="evenodd" d="M23.4738 2.52591C22.3131 2.35851 19.456 2.29544 16.532 5.21946L8.75162 12.9999L12.9999 17.2481L20.7803 9.46775C23.7043 6.54373 23.6412 3.68663 23.4738 2.52591ZM23.7638 0.547044C22.1675 0.315926 18.6091 0.313923 15.1178 3.80525L6.6303 12.2928C6.44276 12.4803 6.3374 12.7346 6.3374 12.9999C6.3374 13.2651 6.44276 13.5194 6.6303 13.707L12.2928 19.3695C12.6833 19.76 13.3165 19.76 13.707 19.3695L22.1945 10.882C25.6858 7.39064 25.6838 3.83225 25.4527 2.23593C25.3942 1.80869 25.1975 1.41226 24.8925 1.10726C24.5875 0.802255 24.1911 0.60553 23.7638 0.547044Z"/>
<path fill-rule="evenodd" clip-rule="evenodd" d="M20.075 10.5879C20.6272 10.5879 21.075 11.0356 21.075 11.5879V19.6629L21.0748 19.6771C21.0674 20.2024 20.8535 20.7035 20.4797 21.0723L16.4441 25.1204C16.188 25.3763 15.8671 25.5578 15.5158 25.6457C15.1646 25.7335 14.796 25.7243 14.4496 25.6191C14.1031 25.5138 13.7917 25.3165 13.5486 25.0482C13.3057 24.7801 13.14 24.4511 13.0693 24.0962C13.0693 24.0959 13.0694 24.0965 13.0693 24.0962L12.0195 18.8595C11.9109 18.3179 12.2619 17.791 12.8034 17.6824C13.3449 17.5738 13.8719 17.9248 13.9804 18.4663L15.0307 23.7054L19.0749 19.6487V11.5879C19.0749 11.0356 19.5227 10.5879 20.075 10.5879Z"/>
<path fill-rule="evenodd" clip-rule="evenodd" d="M6.32317 4.92491L6.33741 4.9248H14.4124C14.9647 4.9248 15.4124 5.37252 15.4124 5.9248C15.4124 6.47709 14.9647 6.9248 14.4124 6.9248H6.35155L6.34347 6.93305L6.34342 6.933L2.29492 10.969L2.29647 10.9693L7.53397 12.0193C8.07548 12.1279 8.42646 12.6549 8.3179 13.1964C8.20934 13.7379 7.68235 14.0889 7.14084 13.9803L1.90489 12.9306C1.90459 12.9305 1.90429 12.9305 1.90399 12.9304C1.5492 12.8597 1.22022 12.6941 0.952104 12.4512C0.683762 12.2081 0.486454 11.8967 0.381231 11.5502C0.276008 11.2037 0.266817 10.8352 0.35464 10.4839C0.442463 10.1326 0.624004 9.81179 0.879894 9.5556L0.881394 9.5541L0.881395 9.55411L4.92796 5.52003C5.29678 5.14622 5.79791 4.93239 6.32317 4.92491Z"/>
</symbol><symbol viewBox="0 0 24 28" id="rocketup" xmlns="http://www.w3.org/2000/svg">
<path fill-rule="evenodd" clip-rule="evenodd" d="M9 27C9 26.4477 9.44772 26 10 26H14C14.5523 26 15 26.4477 15 27C15 27.5523 14.5523 28 14 28H10C9.44772 28 9 27.5523 9 27Z"/>
<path fill-rule="evenodd" clip-rule="evenodd" d="M10.7433 0.6994C11.097 0.407703 11.5412 0.248047 11.9999 0.248047C12.4602 0.248047 12.906 0.408821 13.2603 0.702461C14.5019 1.71366 17.1899 4.22054 18.677 8.08597C20.1857 12.0075 20.4156 17.2227 16.8704 23.492C16.693 23.8057 16.3604 23.9997 15.9999 23.9997H7.99994C7.64256 23.9997 7.31234 23.809 7.13375 23.4994C3.51604 17.2287 3.73758 12.0059 5.26309 8.07828C6.76475 4.21214 9.48673 1.70586 10.7433 0.6994ZM11.9999 2.25536L11.9996 2.25558C10.8781 3.15281 8.4511 5.39442 7.1274 8.8024C5.86277 12.0583 5.56344 16.4791 8.5849 21.9997H15.4091C18.3667 16.4812 18.0635 12.0614 16.8104 8.80409C15.5015 5.40199 13.1128 3.16214 11.9999 2.25536Z"/>
<path fill-rule="evenodd" clip-rule="evenodd" d="M5.87843 12.1573C6.30234 12.5113 6.359 13.1419 6.00499 13.5658L2.0882 18.256C2.08844 18.2571 2.08868 18.2581 2.08892 18.2592L3.62572 25.2186L7.37525 22.219C7.80651 21.874 8.4358 21.9439 8.78081 22.3751C9.12582 22.8064 9.0559 23.4357 8.62464 23.7807L4.87464 26.7807C4.60963 26.9924 4.29464 27.1337 3.96021 27.1904C3.62577 27.2471 3.2824 27.2179 2.9624 27.1054C2.64239 26.9929 2.35625 26.8008 2.13089 26.5473C1.90553 26.2938 1.74836 25.9871 1.67416 25.6561L1.67347 25.653L0.138547 18.7021C0.0665084 18.4047 0.0654529 18.0945 0.135577 17.7964C0.20643 17.4953 0.347902 17.2154 0.548264 16.9798L4.46989 12.2838C4.8239 11.8599 5.45452 11.8033 5.87843 12.1573Z"/>
<path fill-rule="evenodd" clip-rule="evenodd" d="M18.0474 12.057C18.4716 11.7034 19.1022 11.7608 19.4558 12.185L23.4521 16.9807C23.6523 17.2162 23.7936 17.4959 23.8644 17.7968C23.9345 18.0949 23.9335 18.4051 23.8614 18.7025L22.3265 25.6534L22.3258 25.6565C22.2516 25.9875 22.0944 26.2942 21.8691 26.5477C21.6437 26.8012 21.3576 26.9933 21.0376 27.1058C20.7176 27.2183 20.3742 27.2475 20.0398 27.1908C19.7053 27.1341 19.3908 26.9932 19.1258 26.7815L15.3753 23.7811C14.9441 23.4361 14.8742 22.8068 15.2192 22.3755C15.5642 21.9443 16.1935 21.8743 16.6247 22.2194L20.3743 25.219L21.9111 18.2596C21.9113 18.2585 21.9115 18.2574 21.9118 18.2564L17.9193 13.4654C17.5658 13.0411 17.6231 12.4106 18.0474 12.057Z"/>
<path d="M12 12.5C12.8284 12.5 13.5 11.8284 13.5 11C13.5 10.1716 12.8284 9.5 12 9.5C11.1716 9.5 10.5 10.1716 10.5 11C10.5 11.8284 11.1716 12.5 12 12.5Z"/>
</symbol><symbol viewBox="0 0 26 26" id="search" xmlns="http://www.w3.org/2000/svg">
<path fill-rule="evenodd" clip-rule="evenodd" d="M11.5 2C6.25329 2 2 6.25329 2 11.5C2 16.7467 6.25329 21 11.5 21C16.7467 21 21 16.7467 21 11.5C21 6.25329 16.7467 2 11.5 2ZM0 11.5C0 5.14873 5.14873 0 11.5 0C17.8513 0 23 5.14873 23 11.5C23 17.8513 17.8513 23 11.5 23C5.14873 23 0 17.8513 0 11.5Z"/>
<path fill-rule="evenodd" clip-rule="evenodd" d="M18.2177 18.2177C18.6082 17.8272 19.2414 17.8272 19.6319 18.2177L25.7069 24.2927C26.0974 24.6832 26.0974 25.3164 25.7069 25.7069C25.3164 26.0974 24.6832 26.0974 24.2927 25.7069L18.2177 19.6319C17.8272 19.2414 17.8272 18.6082 18.2177 18.2177Z"/>
</symbol><symbol viewBox="0 0 76 77" id="swatches" xmlns="http://www.w3.org/2000/svg">
<path fill-rule="evenodd" clip-rule="evenodd" d="M15.116 3.9598C14.9089 3.9224 14.6964 3.92662 14.4909 3.97219C14.2854 4.01776 14.091 4.10378 13.9191 4.22524C13.7472 4.34669 13.6012 4.50115 13.4896 4.67961C13.378 4.85807 13.303 5.05696 13.2691 5.26468L13.2659 5.28346L3.81293 58.8372C2.58443 65.8221 7.26346 72.6241 14.1727 73.7366C17.425 74.243 20.7463 73.4568 23.4265 71.5462C26.1072 69.6351 27.9336 66.7508 28.515 63.5105C28.5151 63.5097 28.5152 63.5089 28.5154 63.5081L38.0046 9.65776C38.0049 9.65603 38.0052 9.6543 38.0055 9.65257C38.0758 9.22431 37.9761 8.78543 37.7274 8.42959C37.479 8.0742 37.1018 7.82987 36.6761 7.74845L15.1229 3.96102L15.116 3.9598ZM15.6452 1.00684C15.0474 0.899444 14.4343 0.911851 13.8413 1.04335C13.2471 1.17513 12.6851 1.42387 12.188 1.77507C11.6909 2.12627 11.2687 2.57291 10.946 3.08895C10.6252 3.60203 10.409 4.17353 10.3101 4.77047L0.858437 58.3167C-0.647283 66.8778 5.06283 75.3103 13.699 76.699L13.7059 76.7001C17.7341 77.3287 21.8483 76.3556 25.168 73.989C28.4877 71.6224 30.7491 68.0503 31.4683 64.0373L31.4691 64.033L40.9613 10.1658L40.9634 10.1533C41.1652 8.94837 40.8862 7.71236 40.1863 6.71098C39.4864 5.7096 38.4216 5.02282 37.2207 4.79827L37.2046 4.79536L15.649 1.00752C15.6477 1.00729 15.6464 1.00706 15.6452 1.00684Z"/>
<path fill-rule="evenodd" clip-rule="evenodd" d="M63.8358 30.7065C63.6214 30.6976 63.4073 30.7313 63.206 30.8057L63.1989 30.8083L34.7223 41.1599C33.9438 41.4429 33.0832 41.0411 32.8001 40.2626C32.5171 39.484 32.9188 38.6234 33.6974 38.3404L62.1669 27.9914C62.1682 27.9909 62.1696 27.9904 62.171 27.9899C62.7428 27.7794 63.3505 27.6839 63.9594 27.709C64.5696 27.7342 65.1689 27.8799 65.7225 28.1379C66.2762 28.3959 66.7732 28.7611 67.185 29.2122C67.5957 29.6623 67.9135 30.189 68.1201 30.7623C68.1206 30.7636 68.1211 30.765 68.1215 30.7664L75.6231 51.3174C76.0325 52.4676 75.9705 53.733 75.4506 54.8377C74.9308 55.9423 73.9952 56.7966 72.848 57.2143L21.4417 75.9253C20.6632 76.2086 19.8024 75.8072 19.5191 75.0288C19.2358 74.2503 19.6371 73.3895 20.4156 73.1062L71.8217 54.3953C72.2248 54.2485 72.5535 53.9484 72.7362 53.5603C72.9181 53.1736 72.9404 52.7309 72.7984 52.3281C72.7978 52.3265 72.7973 52.325 72.7967 52.3234L65.3008 31.7879L65.2982 31.7807C65.2257 31.5787 65.1138 31.3931 64.9691 31.2346C64.8245 31.0761 64.6498 30.9478 64.4553 30.8572C64.2608 30.7665 64.0502 30.7153 63.8358 30.7065Z"/>
<path fill-rule="evenodd" clip-rule="evenodd" d="M73.9375 52.9766C74.7659 52.9766 75.4375 53.6481 75.4375 54.4766V72.25C75.4375 73.4766 74.9502 74.653 74.0829 75.5204C73.2155 76.3877 72.0391 76.875 70.8125 76.875H16.125C15.2966 76.875 14.625 76.2034 14.625 75.375C14.625 74.5466 15.2966 73.875 16.125 73.875H70.8125C71.2435 73.875 71.6568 73.7038 71.9616 73.3991C72.2663 73.0943 72.4375 72.681 72.4375 72.25V54.4766C72.4375 53.6481 73.1091 52.9766 73.9375 52.9766Z"/>
<path d="M16.125 66C18.7138 66 20.8125 63.9013 20.8125 61.3125C20.8125 58.7237 18.7138 56.625 16.125 56.625C13.5362 56.625 11.4375 58.7237 11.4375 61.3125C11.4375 63.9013 13.5362 66 16.125 66Z"/>
</symbol><symbol viewBox="0 0 28 18" id="trend" xmlns="http://www.w3.org/2000/svg">
<path fill-rule="evenodd" clip-rule="evenodd" d="M27.7071 0.292893C28.0976 0.683417 28.0976 1.31658 27.7071 1.70711L15.7071 13.7071C15.3166 14.0976 14.6834 14.0976 14.2929 13.7071L10 9.41421L1.70711 17.7071C1.31658 18.0976 0.683417 18.0976 0.292893 17.7071C-0.0976311 17.3166 -0.0976311 16.6834 0.292893 16.2929L9.29289 7.29289C9.68342 6.90237 10.3166 6.90237 10.7071 7.29289L15 11.5858L26.2929 0.292893C26.6834 -0.0976311 27.3166 -0.0976311 27.7071 0.292893Z"/>
<path fill-rule="evenodd" clip-rule="evenodd" d="M18 1C18 0.447715 18.4477 0 19 0H27C27.5523 0 28 0.447715 28 1V9C28 9.55229 27.5523 10 27 10C26.4477 10 26 9.55229 26 9V2H19C18.4477 2 18 1.55228 18 1Z"/>
</symbol><symbol viewBox="0 0 28 24" id="twitter" xmlns="http://www.w3.org/2000/svg">
<path d="M12.9997 6.00045C12.9997 3.25045 15.3122 0.962955 18.0622 1.00045C19.0253 1.01157 19.9646 1.3006 20.7673 1.8328C21.5701 2.365 22.202 3.11771 22.5872 4.00045H26.9997L22.9622 8.03795C22.7016 12.0937 20.9063 15.8979 17.9412 18.6773C14.9761 21.4566 11.0638 23.0025 6.9997 23.0005C2.9997 23.0005 1.9997 21.5005 1.9997 21.5005C1.9997 21.5005 5.9997 20.0005 7.9997 17.0005C7.9997 17.0005 -0.000301421 13.0005 1.9997 2.00045C1.9997 2.00045 6.9997 7.00045 12.9997 8.00045V6.00045Z" stroke-width="2" stroke-linecap="round" stroke-linejoin="round"/>
</symbol><symbol viewBox="0 0 28 25" id="user" xmlns="http://www.w3.org/2000/svg">
<path fill-rule="evenodd" clip-rule="evenodd" d="M14 2C10.134 2 7 5.13401 7 9C7 12.866 10.134 16 14 16C17.866 16 21 12.866 21 9C21 5.13401 17.866 2 14 2ZM5 9C5 4.02944 9.02944 0 14 0C18.9706 0 23 4.02944 23 9C23 13.9706 18.9706 18 14 18C9.02944 18 5 13.9706 5 9Z"/>
<path fill-rule="evenodd" clip-rule="evenodd" d="M13.9999 17.999C11.7177 17.999 9.47578 18.5998 7.4994 19.741C5.52303 20.8822 3.8819 22.5235 2.74099 24.5001C2.4649 24.9784 1.85332 25.1423 1.375 24.8662C0.896685 24.5901 0.732753 23.9785 1.00885 23.5002C2.32528 21.2196 4.21889 19.3257 6.49932 18.009C8.77975 16.6922 11.3666 15.999 13.9999 15.999C16.6332 15.999 19.2201 16.6922 21.5005 18.009C23.781 19.3257 25.6746 21.2196 26.991 23.5002C27.2671 23.9785 27.1032 24.5901 26.6248 24.8662C26.1465 25.1423 25.5349 24.9784 25.2589 24.5001C24.1179 22.5235 22.4768 20.8822 20.5004 19.741C18.5241 18.5998 16.2821 17.999 13.9999 17.999Z"/>
</symbol><symbol viewBox="0 0 26 26" id="user-circle" xmlns="http://www.w3.org/2000/svg">
<path fill-rule="evenodd" clip-rule="evenodd" d="M13 2C6.92487 2 2 6.92487 2 13C2 19.0751 6.92487 24 13 24C19.0751 24 24 19.0751 24 13C24 6.92487 19.0751 2 13 2ZM0 13C0 5.8203 5.8203 0 13 0C20.1797 0 26 5.8203 26 13C26 20.1797 20.1797 26 13 26C5.8203 26 0 20.1797 0 13Z"/>
<path fill-rule="evenodd" clip-rule="evenodd" d="M13 8C10.7909 8 9 9.79086 9 12C9 14.2091 10.7909 16 13 16C15.2091 16 17 14.2091 17 12C17 9.79086 15.2091 8 13 8ZM7 12C7 8.68629 9.68629 6 13 6C16.3137 6 19 8.68629 19 12C19 15.3137 16.3137 18 13 18C9.68629 18 7 15.3137 7 12Z"/>
<path fill-rule="evenodd" clip-rule="evenodd" d="M13.0003 17.999C11.523 17.999 10.0745 18.4081 8.81536 19.1809C7.55627 19.9538 6.53577 21.0602 5.86698 22.3775C5.61696 22.8699 5.01507 23.0665 4.52262 22.8165C4.03017 22.5664 3.83363 21.9646 4.08365 21.4721C4.91963 19.8255 6.19526 18.4425 7.76912 17.4764C9.34299 16.5104 11.1536 15.999 13.0003 15.999C14.847 15.999 16.6576 16.5104 18.2315 17.4764C19.8054 18.4425 21.081 19.8255 21.917 21.4721C22.167 21.9646 21.9705 22.5664 21.478 22.8165C20.9856 23.0665 20.3837 22.8699 20.1336 22.3775C19.4649 21.0602 18.4444 19.9538 17.1853 19.1809C15.9262 18.4081 14.4777 17.999 13.0003 17.999Z"/>
</symbol><symbol viewBox="0 0 92 58" id="video" xmlns="http://www.w3.org/2000/svg">
<path fill-rule="evenodd" clip-rule="evenodd" d="M5.375 3.9375C4.94402 3.9375 4.5307 4.10871 4.22595 4.41345C3.9212 4.7182 3.75 5.13152 3.75 5.5625V43.0625C3.75 45.9799 4.90893 48.7778 6.97183 50.8407C9.03473 52.9036 11.8326 54.0625 14.75 54.0625H64.75C65.181 54.0625 65.5943 53.8913 65.899 53.5866C66.2038 53.2818 66.375 52.8685 66.375 52.4375V14.9375C66.375 12.0201 65.2161 9.22223 63.1532 7.15932C61.0903 5.09642 58.2924 3.9375 55.375 3.9375H5.375ZM5.375 0.9375H55.375C59.088 0.9375 62.649 2.4125 65.2745 5.038C67.9 7.66351 69.375 11.2245 69.375 14.9375V52.4375C69.375 53.6641 68.8877 54.8405 68.0204 55.7079C67.153 56.5752 65.9766 57.0625 64.75 57.0625H14.75C11.037 57.0625 7.47601 55.5875 4.8505 52.962C2.225 50.3365 0.75 46.7755 0.75 43.0625V5.5625C0.75 4.33587 1.23728 3.15949 2.10463 2.29213C2.97199 1.42478 4.14837 0.9375 5.375 0.9375Z"/>
<path fill-rule="evenodd" clip-rule="evenodd" d="M90.5027 8.95263C90.9651 9.22102 91.2498 9.71529 91.2498 10.25V47.75C91.2498 48.2847 90.9651 48.779 90.5027 49.0474C90.0402 49.3157 89.4698 49.3177 89.0056 49.0524L67.1306 36.5524C66.4113 36.1413 66.1614 35.2251 66.5724 34.5058C66.9834 33.7865 67.8997 33.5366 68.619 33.9476L88.2498 45.1652V12.8348L68.619 24.0524C67.8997 24.4634 66.9834 24.2135 66.5724 23.4942C66.1614 22.7749 66.4113 21.8587 67.1306 21.4476L89.0056 8.94764C89.4698 8.68235 90.0402 8.68425 90.5027 8.95263Z"/>
</symbol><symbol viewBox="0 0 25 22" id="wallet" xmlns="http://www.w3.org/2000/svg">
<path fill-rule="evenodd" clip-rule="evenodd" d="M3 2C2.73478 2 2.48043 2.10536 2.29289 2.29289C2.10536 2.48043 2 2.73478 2 3C2 3.26522 2.10536 3.51957 2.29289 3.70711C2.48043 3.89464 2.73478 4 3 4H23C23.5304 4 24.0391 4.21071 24.4142 4.58579C24.7893 4.96086 25 5.46957 25 6V20C25 20.5304 24.7893 21.0391 24.4142 21.4142C24.0391 21.7893 23.5304 22 23 22H3C2.20435 22 1.44129 21.6839 0.87868 21.1213C0.31607 20.5587 0 19.7957 0 19V3C0 2.20435 0.31607 1.44129 0.87868 0.87868C1.44129 0.31607 2.20435 0 3 0H20C20.5523 0 21 0.447715 21 1C21 1.55228 20.5523 2 20 2H3ZM2 5.82843V19C2 19.2652 2.10536 19.5196 2.29289 19.7071C2.48043 19.8946 2.73478 20 3 20H23V6H3C2.65606 6 2.3182 5.94094 2 5.82843Z"/>
<path d="M18.5 14.5C19.3284 14.5 20 13.8284 20 13C20 12.1716 19.3284 11.5 18.5 11.5C17.6716 11.5 17 12.1716 17 13C17 13.8284 17.6716 14.5 18.5 14.5Z"/>
</symbol><symbol viewBox="0 0 28 22" id="youtube" xmlns="http://www.w3.org/2000/svg">
<path fill-rule="evenodd" clip-rule="evenodd" d="M11.5281 6.11833C11.8533 5.94431 12.2478 5.96338 12.5547 6.16795L18.5547 10.168C18.8329 10.3534 19 10.6656 19 11C19 11.3344 18.8329 11.6466 18.5547 11.8321L12.5547 15.8321C12.2478 16.0366 11.8533 16.0557 11.5281 15.8817C11.203 15.7077 11 15.3688 11 15V7C11 6.63121 11.203 6.29235 11.5281 6.11833ZM13 8.86852V13.1315L16.1972 11L13 8.86852Z"/>
<path fill-rule="evenodd" clip-rule="evenodd" d="M13.9985 0.0498473L13.9816 0.0498047L13.9188 0.049834C13.8643 0.049956 13.785 0.0503512 13.6831 0.051432C13.4794 0.0535932 13.1856 0.0584977 12.8206 0.0694528C12.0912 0.0913454 11.0746 0.13749 9.92368 0.234657C7.64733 0.426848 4.74928 0.82571 2.51808 1.67823L2.50338 1.68398C2.06511 1.85941 1.6742 2.13539 1.36218 2.48966C1.05016 2.84393 0.825774 3.26657 0.707108 3.7235L0.706137 3.72726C0.394729 4.94582 0 7.2055 0 10.9999C0 14.7942 0.394729 17.0539 0.706137 18.2725L0.707108 18.2762C0.825774 18.7332 1.05016 19.1558 1.36218 19.5101C1.6742 19.8643 2.06511 20.1403 2.50338 20.3157L2.51808 20.3215C4.74928 21.174 7.64733 21.5729 9.92368 21.7651C11.0746 21.8622 12.0912 21.9084 12.8206 21.9303C13.1856 21.9412 13.4794 21.9461 13.6831 21.9483C13.785 21.9494 13.8643 21.9498 13.9188 21.9499L13.9816 21.9499L13.9985 21.9499H14.0015L14.0184 21.9499L14.0812 21.9499C14.1357 21.9498 14.215 21.9494 14.3169 21.9483C14.5206 21.9461 14.8144 21.9412 15.1794 21.9303C15.9088 21.9084 16.9254 21.8622 18.0763 21.7651C20.3527 21.5729 23.2507 21.174 25.4819 20.3215L25.4966 20.3157C25.9349 20.1403 26.3258 19.8643 26.6378 19.5101C26.9498 19.1558 27.1742 18.7332 27.2929 18.2762L27.2939 18.2725C27.6053 17.0539 28 14.7942 28 10.9999C28 7.2055 27.6053 4.94582 27.2939 3.72726L27.2929 3.7235C27.1742 3.26657 26.9498 2.84393 26.6378 2.48966C26.3258 2.13539 25.9349 1.85941 25.4966 1.68398L25.4819 1.67823C23.2507 0.82571 20.3527 0.426848 18.0763 0.234657C16.9254 0.13749 15.9088 0.0913454 15.1794 0.0694528C14.8144 0.0584977 14.5206 0.0535932 14.3169 0.051432C14.215 0.0503512 14.1357 0.049956 14.0812 0.049834L14.0184 0.0498047L14.0015 0.0498473H13.9985ZM13.9947 19.9499L14.0054 19.9498L14.0086 19.9499L14.0217 19.9499L14.0767 19.9499C14.1259 19.9498 14.1996 19.9494 14.2957 19.9484C14.4877 19.9464 14.7686 19.9417 15.1194 19.9312C15.8216 19.9101 16.8011 19.8656 17.9081 19.7722C20.1441 19.5834 22.8041 19.2018 24.7596 18.4565C24.9044 18.3974 25.0336 18.3056 25.1369 18.1882C25.2414 18.0695 25.3167 17.928 25.3567 17.7751C25.6203 16.7429 26 14.6529 26 10.9999C26 7.34679 25.6203 5.25685 25.3567 4.22464C25.3167 4.07168 25.2414 3.9302 25.1369 3.81154C25.0336 3.69415 24.9044 3.60233 24.7596 3.54326C22.8041 2.79791 20.1441 2.41635 17.9081 2.22757C16.8011 2.13411 15.8216 2.08963 15.1194 2.06855C14.7686 2.05802 14.4877 2.05336 14.2957 2.05132C14.1996 2.0503 14.1259 2.04994 14.0767 2.04983L14.0217 2.0498L14.0086 2.04983L14.0058 2.04985L13.9946 2.04991L13.9914 2.04983L13.9783 2.0498L13.9233 2.04983C13.8741 2.04994 13.8004 2.0503 13.7043 2.05132C13.5123 2.05336 13.2314 2.05802 12.8806 2.06855C12.1784 2.08963 11.1989 2.13411 10.0919 2.22757C7.8559 2.41635 5.1959 2.79791 3.24039 3.54327C3.09561 3.60234 2.96645 3.69415 2.86306 3.81154C2.75855 3.9302 2.6833 4.07168 2.64331 4.22464C2.37974 5.25685 2 7.3468 2 10.9999C2 14.6529 2.37973 16.7429 2.6433 17.7751C2.68329 17.928 2.75855 18.0695 2.86306 18.1882C2.96645 18.3056 3.09561 18.3974 3.24038 18.4565C5.1959 19.2018 7.8559 19.5834 10.0919 19.7722C11.1989 19.8656 12.1784 19.9101 12.8806 19.9312C13.2314 19.9417 13.5123 19.9464 13.7043 19.9484C13.8004 19.9494 13.8741 19.9498 13.9233 19.9499L13.9783 19.9499L13.9914 19.9499L13.9947 19.9499Z"/>
</symbol></svg>