<svg width="160" height="160" viewBox="0 0 160 160" fill="none" xmlns="http://www.w3.org/2000/svg">
<g filter="url(#filter0_f_2599_5297)">
<path d="M115.378 131.285C115.378 134.861 98.4108 137.76 77.4809 137.76C56.5511 137.76 39.584 134.861 39.584 131.285C39.584 127.708 56.5511 124.809 77.4809 124.809C98.4108 124.809 115.378 127.708 115.378 131.285Z" fill="url(#paint0_radial_2599_5297)"/>
</g>
<g filter="url(#filter1_i_2599_5297)">
<path d="M78.2181 38.3138L53.5349 42.6661C51.5519 43.0158 50.2279 44.9067 50.5775 46.8897L56.7984 82.1703C57.148 84.1535 59.039 85.4775 61.022 85.1274L85.7051 80.7755C87.6883 80.4259 89.0123 78.5349 88.6628 76.5517L82.4419 41.2712C82.0917 39.2883 80.2007 37.9641 78.2181 38.3138Z" fill="url(#paint1_linear_2599_5297)"/>
</g>
<path d="M78.5754 56.4499L59.4011 59.8309C58.7554 59.9447 58.3243 60.5604 58.4382 61.2061L58.4389 61.2099C58.5527 61.8556 59.1684 62.2867 59.814 62.1728L78.9887 58.7918C79.6339 58.678 80.0652 58.0623 79.9516 57.4166L79.951 57.4128C79.8368 56.7671 79.2212 56.336 78.5754 56.4499Z" fill="url(#paint2_linear_2599_5297)"/>
<path d="M81.492 72.9267L62.4825 76.2786C61.8424 76.3917 61.4129 76.9899 61.5231 77.6154L61.5238 77.6195C61.6341 78.245 62.2424 78.6607 62.8825 78.5476L81.892 75.1957C82.5326 75.0827 82.9616 74.4844 82.8514 73.8589L82.8508 73.8549C82.7407 73.2294 82.132 72.8137 81.492 72.9267Z" fill="url(#paint3_linear_2599_5297)"/>
<path d="M79.9708 64.3056L60.961 67.6575C60.3208 67.7705 59.8913 68.3688 60.0017 68.9943L60.0023 68.9984C60.1126 69.6239 60.7209 70.0395 61.361 69.9265L80.3708 66.5746C81.0108 66.4615 81.4404 65.863 81.3302 65.2375L81.3296 65.2338C81.2189 64.6083 80.6108 64.1927 79.9708 64.3056Z" fill="url(#paint4_linear_2599_5297)"/>
<path d="M64.259 46.3925L58.6557 47.3805C57.4145 47.5994 56.5857 48.783 56.8046 50.0241L57.0788 51.5791C57.2976 52.8203 58.4812 53.649 59.7224 53.4302L65.3257 52.4422C66.5668 52.2234 67.3958 51.0398 67.1766 49.7986L66.9024 48.2436C66.6839 47.0024 65.5001 46.1736 64.259 46.3925Z" fill="#A259FF"/>
<g filter="url(#filter2_i_2599_5297)">
<path d="M107.633 48.043H74.9761C73.4543 48.043 72.2207 49.2766 72.2207 50.7984V66.1485C72.2207 67.6702 73.4543 68.9038 74.9761 68.9038H107.633C109.155 68.9038 110.389 67.6702 110.389 66.1485V50.7984C110.389 49.2766 109.155 48.043 107.633 48.043Z" fill="url(#paint5_linear_2599_5297)"/>
</g>
<path d="M80.2808 61.6384C82.0304 61.6384 83.4489 60.2201 83.4489 58.4706C83.4489 56.721 82.0304 55.3027 80.2808 55.3027C78.5313 55.3027 77.1133 56.721 77.1133 58.4706C77.1133 60.2201 78.5313 61.6384 80.2808 61.6384Z" fill="white"/>
<path d="M91.6017 61.6384C93.3513 61.6384 94.7692 60.2201 94.7692 58.4706C94.7692 56.721 93.3513 55.3027 91.6017 55.3027C89.8522 55.3027 88.4336 56.721 88.4336 58.4706C88.4336 60.2201 89.8522 61.6384 91.6017 61.6384Z" fill="white"/>
<path d="M102.922 61.6384C104.672 61.6384 106.09 60.2201 106.09 58.4706C106.09 56.721 104.672 55.3027 102.922 55.3027C101.172 55.3027 99.7539 56.721 99.7539 58.4706C99.7539 60.2201 101.172 61.6384 102.922 61.6384Z" fill="white"/>
<path fill-rule="evenodd" clip-rule="evenodd" d="M74.3281 103.196C74.6017 101.643 76.0823 100.606 77.6353 100.88L93.9478 103.756C96.1768 104.149 98.1913 105.184 99.6191 106.68C101.046 108.174 102.013 110.299 101.599 112.651C101.184 115.004 99.5484 116.67 97.6968 117.587C95.8435 118.505 93.5959 118.79 91.3664 118.397L52.6057 111.562C51.053 111.288 50.0161 109.807 50.2899 108.255C50.5637 106.702 52.0444 105.665 53.5972 105.939L92.3582 112.774C93.5142 112.977 94.5095 112.794 95.1629 112.47C95.8168 112.146 95.9513 111.8 95.9756 111.66C96 111.521 95.993 111.15 95.4898 110.623C94.9866 110.096 94.1136 109.584 92.9565 109.379L76.5768 105.921C75.0243 105.648 74.0539 104.748 74.3281 103.196Z" fill="url(#paint6_linear_2599_5297)"/>
<path fill-rule="evenodd" clip-rule="evenodd" d="M105.837 74.1307C106.451 72.813 107.873 72.0721 109.305 72.3243L122.093 74.5794C123.839 74.8872 125.005 76.5521 124.698 78.2988C124.389 80.0449 122.724 81.2107 120.978 80.9029L110.617 79.0756L104.496 92.2136C103.748 93.8211 101.838 94.5168 100.23 93.7684C98.6234 93.0194 97.9272 91.1092 98.6762 89.5023L105.837 74.1307Z" fill="url(#paint7_linear_2599_5297)"/>
<path d="M60.2545 122.937C64.0374 123.604 67.6448 121.078 68.312 117.295C68.9787 113.512 66.4529 109.905 62.67 109.238C58.8871 108.57 55.2797 111.097 54.6127 114.879C53.9457 118.663 56.4716 122.27 60.2545 122.937Z" fill="url(#paint8_linear_2599_5297)"/>
<path d="M102.886 79.9352L55.6845 71.6123C52.1462 70.9885 49.0034 73.5288 49.2499 76.8094L49.8394 95.9543C50.0182 98.3242 51.9522 100.324 54.5077 100.774L95.6529 110.806L107.165 87.0302C109.818 82.2152 106.433 80.5607 102.886 79.9352Z" fill="url(#paint9_linear_2599_5297)"/>
<path d="M60.6655 119.504C62.5659 119.839 64.3783 118.57 64.7134 116.67C65.0485 114.77 63.7795 112.957 61.879 112.622C59.9784 112.287 58.1661 113.556 57.831 115.457C57.4959 117.357 58.7649 119.169 60.6655 119.504Z" fill="url(#paint10_linear_2599_5297)"/>
<mask id="mask0_2599_5297" style="mask-type:alpha" maskUnits="userSpaceOnUse" x="49" y="71" width="59" height="40">
<path d="M102.887 79.9352L55.6845 71.6123C52.1462 70.9885 49.0034 73.5288 49.2499 76.8094L49.8394 95.9543C50.0182 98.3242 51.9522 100.324 54.5077 100.774L95.6526 110.806L107.166 87.0302C108.52 84.0233 106.433 80.5607 102.887 79.9352Z" fill="url(#paint11_linear_2599_5297)"/>
</mask>
<g mask="url(#mask0_2599_5297)">
<path d="M80.0496 92.5607C80.2542 91.4766 81.2994 90.7613 82.384 90.9613C83.4681 91.1618 84.1812 92.203 83.9765 93.2865L81.2745 107.578C81.0698 108.662 80.0246 109.377 78.9406 109.177C77.8559 108.977 77.1429 107.936 77.3475 106.852L80.0496 92.5607Z" fill="#A259FF"/>
<path d="M115.311 83.2647C116.216 83.4218 116.826 84.2838 116.673 85.1899L116.561 85.8462C116.408 86.7523 115.549 87.3592 114.644 87.2021L48.6447 75.7395C47.7393 75.5818 47.1299 74.7198 47.2834 73.8143L47.3947 73.158C47.5483 72.252 48.4068 71.645 49.3121 71.8021L115.311 83.2647Z" fill="#A259FF"/>
<path d="M91.157 94.5661C91.3616 93.4826 92.4068 92.7667 93.4909 92.9673C94.5755 93.1679 95.2886 94.209 95.0834 95.2925L92.3819 109.584C92.1773 110.668 91.1321 111.384 90.0474 111.183C88.9634 110.983 88.2503 109.942 88.4549 108.858L91.157 94.5661Z" fill="#A259FF"/>
<path d="M68.9441 90.5528C69.1487 89.4694 70.194 88.7534 71.278 88.9534C72.3626 89.154 73.0757 90.1952 72.8705 91.2786L70.169 105.57C69.9644 106.654 68.9192 107.37 67.8345 107.17C66.7505 106.969 66.0374 105.928 66.2421 104.844L68.9441 90.5528Z" fill="#A259FF"/>
<path d="M57.7094 88.5724C57.9143 87.4889 58.9594 86.773 60.0437 86.973C61.1281 87.1735 61.8411 88.2147 61.6363 89.2982L58.9346 103.59C58.7298 104.673 57.6847 105.389 56.6003 105.189C55.5159 104.989 54.8029 103.947 55.0078 102.864L57.7094 88.5724Z" fill="#A259FF"/>
<path d="M47.9551 71.8134C48.1626 70.6366 49.2845 69.8511 50.4609 70.0586L108.142 80.2291C109.318 80.4366 110.104 81.5589 109.896 82.7352C109.689 83.912 108.567 84.6975 107.391 84.4899L49.7098 74.3189C48.5332 74.112 47.7477 72.9897 47.9551 71.8134Z" fill="url(#paint12_linear_2599_5297)"/>
</g>
<defs>
<filter id="filter0_f_2599_5297" x="18.8966" y="104.121" width="117.17" height="54.326" filterUnits="userSpaceOnUse" color-interpolation-filters="sRGB">
<feFlood flood-opacity="0" result="BackgroundImageFix"/>
<feBlend mode="normal" in="SourceGraphic" in2="BackgroundImageFix" result="shape"/>
<feGaussianBlur stdDeviation="10.3437" result="effect1_foregroundBlur_2599_5297"/>
</filter>
<filter id="filter1_i_2599_5297" x="50.5215" y="38.2578" width="40.5818" height="52.4897" filterUnits="userSpaceOnUse" color-interpolation-filters="sRGB">
<feFlood flood-opacity="0" result="BackgroundImageFix"/>
<feBlend mode="normal" in="SourceGraphic" in2="BackgroundImageFix" result="shape"/>
<feColorMatrix in="SourceAlpha" type="matrix" values="0 0 0 0 0 0 0 0 0 0 0 0 0 0 0 0 0 0 127 0" result="hardAlpha"/>
<feOffset dx="2.38455" dy="5.56394"/>
<feGaussianBlur stdDeviation="5.96137"/>
<feComposite in2="hardAlpha" operator="arithmetic" k2="-1" k3="1"/>
<feColorMatrix type="matrix" values="0 0 0 0 0.104618 0 0 0 0 0.465612 0 0 0 0 0.545833 0 0 0 0.15 0"/>
<feBlend mode="normal" in2="shape" result="effect1_innerShadow_2599_5297"/>
</filter>
<filter id="filter2_i_2599_5297" x="72.2207" y="48.043" width="43.7938" height="24.6119" filterUnits="userSpaceOnUse" color-interpolation-filters="sRGB">
<feFlood flood-opacity="0" result="BackgroundImageFix"/>
<feBlend mode="normal" in="SourceGraphic" in2="BackgroundImageFix" result="shape"/>
<feColorMatrix in="SourceAlpha" type="matrix" values="0 0 0 0 0 0 0 0 0 0 0 0 0 0 0 0 0 0 127 0" result="hardAlpha"/>
<feOffset dx="5.62585" dy="3.75056"/>
<feGaussianBlur stdDeviation="6.09467"/>
<feComposite in2="hardAlpha" operator="arithmetic" k2="-1" k3="1"/>
<feColorMatrix type="matrix" values="0 0 0 0 0.104618 0 0 0 0 0.465612 0 0 0 0 0.545833 0 0 0 0.09 0"/>
<feBlend mode="normal" in2="shape" result="effect1_innerShadow_2599_5297"/>
</filter>
<radialGradient id="paint0_radial_2599_5297" cx="0" cy="0" r="1" gradientUnits="userSpaceOnUse" gradientTransform="translate(77.4809 131.285) rotate(90) scale(6.47606 37.8971)">
<stop stop-color="#2B2B2B"/>
<stop offset="1" stop-color="#2B2B2B" stop-opacity="0"/>
</radialGradient>
<linearGradient id="paint1_linear_2599_5297" x1="55.1033" y1="42.3895" x2="87.2054" y2="41.4003" gradientUnits="userSpaceOnUse">
<stop stop-color="#A259FF"/>
<stop offset="1" stop-color="#3B3B3B"/>
</linearGradient>
<linearGradient id="paint2_linear_2599_5297" x1="75.6942" y1="58.6896" x2="73.587" y2="52.4434" gradientUnits="userSpaceOnUse">
<stop stop-color="#A259FF"/>
<stop offset="0.666667" stop-color="white"/>
</linearGradient>
<linearGradient id="paint3_linear_2599_5297" x1="78.6288" y1="75.1093" x2="76.6068" y2="69.0479" gradientUnits="userSpaceOnUse">
<stop stop-color="#A259FF"/>
<stop offset="0.666667" stop-color="white"/>
</linearGradient>
<linearGradient id="paint4_linear_2599_5297" x1="77.107" y1="66.4882" x2="75.085" y2="60.4268" gradientUnits="userSpaceOnUse">
<stop stop-color="#A259FF"/>
<stop offset="0.666667" stop-color="white"/>
</linearGradient>
<linearGradient id="paint5_linear_2599_5297" x1="72.2207" y1="73.5902" x2="95.7077" y2="38.3404" gradientUnits="userSpaceOnUse">
<stop stop-color="#A259FF"/>
<stop offset="1" stop-color="#FF6250"/>
</linearGradient>
<linearGradient id="paint6_linear_2599_5297" x1="90.8313" y1="114.032" x2="82.7791" y2="76.2403" gradientUnits="userSpaceOnUse">
<stop stop-color="#A259FF"/>
<stop offset="0.666667" stop-color="white"/>
</linearGradient>
<linearGradient id="paint7_linear_2599_5297" x1="117.67" y1="78.9452" x2="136.256" y2="100.578" gradientUnits="userSpaceOnUse">
<stop stop-color="#A259FF"/>
<stop offset="1" stop-color="#377DF7"/>
</linearGradient>
<linearGradient id="paint8_linear_2599_5297" x1="65.0194" y1="119.781" x2="49.1324" y2="103.549" gradientUnits="userSpaceOnUse">
<stop stop-color="#A259FF"/>
<stop offset="0.666667" stop-color="white"/>
</linearGradient>
<linearGradient id="paint9_linear_2599_5297" x1="92.9416" y1="101.234" x2="61.0077" y2="37.5692" gradientUnits="userSpaceOnUse">
<stop stop-color="#A259FF"/>
<stop offset="0.666667" stop-color="white"/>
</linearGradient>
<linearGradient id="paint10_linear_2599_5297" x1="57.3212" y1="117.14" x2="67.2365" y2="119.05" gradientUnits="userSpaceOnUse">
<stop stop-color="white"/>
<stop offset="1" stop-color="#BCF3FF"/>
</linearGradient>
<linearGradient id="paint11_linear_2599_5297" x1="48.8351" y1="77.9294" x2="107.295" y2="88.9589" gradientUnits="userSpaceOnUse">
<stop stop-color="#AFF1FF"/>
<stop offset="1" stop-color="#65C8DE"/>
</linearGradient>
<linearGradient id="paint12_linear_2599_5297" x1="97.2173" y1="81.4534" x2="98.168" y2="69.4163" gradientUnits="userSpaceOnUse">
<stop stop-color="#A259FF"/>
<stop offset="0.666667" stop-color="white"/>
</linearGradient>
</defs>
</svg>
