<svg width="250" height="250" viewBox="0 0 250 250" fill="none" xmlns="http://www.w3.org/2000/svg">
<g filter="url(#filter0_f_2599_8436)">
<path d="M180.276 205.132C180.276 210.721 153.765 215.251 121.062 215.251C88.3587 215.251 61.8477 210.721 61.8477 205.132C61.8477 199.544 88.3587 195.014 121.062 195.014C153.765 195.014 180.276 199.544 180.276 205.132Z" fill="url(#paint0_radial_2599_8436)"/>
</g>
<g filter="url(#filter1_i_2599_8436)">
<path d="M122.215 59.8649L83.6479 66.6653C80.5495 67.2117 78.4807 70.1663 79.0269 73.2647L88.7471 128.391C89.2934 131.489 92.2481 133.558 95.3465 133.011L133.914 126.211C137.013 125.665 139.081 122.71 138.535 119.612L128.815 64.4858C128.268 61.3874 125.313 59.3185 122.215 59.8649Z" fill="url(#paint1_linear_2599_8436)"/>
</g>
<path d="M122.772 88.2023L92.8124 93.4851C91.8035 93.663 91.1299 94.6251 91.3078 95.6339L91.3089 95.6398C91.4868 96.6487 92.4488 97.3223 93.4576 97.1444L123.418 91.8616C124.426 91.6837 125.1 90.7217 124.923 89.7128L124.922 89.7069C124.743 88.6981 123.781 88.0244 122.772 88.2023Z" fill="url(#paint2_linear_2599_8436)"/>
<path d="M127.33 113.947L97.6275 119.184C96.6274 119.361 95.9562 120.296 96.1285 121.273L96.1295 121.279C96.3019 122.257 97.2524 122.906 98.2526 122.73L127.955 117.492C128.956 117.316 129.626 116.381 129.454 115.403L129.453 115.397C129.281 114.42 128.33 113.77 127.33 113.947Z" fill="url(#paint3_linear_2599_8436)"/>
<path d="M124.955 100.476L95.2525 105.713C94.2523 105.89 93.5812 106.825 93.7536 107.802L93.7546 107.809C93.9268 108.786 94.8774 109.435 95.8776 109.259L125.58 104.021C126.58 103.845 127.252 102.91 127.079 101.932L127.079 101.927C126.906 100.949 125.955 100.3 124.955 100.476Z" fill="url(#paint4_linear_2599_8436)"/>
<path d="M100.405 72.4884L91.6503 74.0321C89.7109 74.3741 88.4159 76.2235 88.7579 78.1628L89.1863 80.5925C89.5283 82.5318 91.3776 83.8268 93.317 83.4848L102.072 81.9411C104.011 81.5991 105.307 79.7498 104.964 77.8104L104.536 75.3807C104.194 73.4413 102.345 72.1464 100.405 72.4884Z" fill="#A259FF"/>
<g filter="url(#filter2_i_2599_8436)">
<path d="M168.178 75.0664H117.151C114.773 75.0664 112.846 76.994 112.846 79.3718V103.356C112.846 105.734 114.773 107.662 117.151 107.662H168.178C170.556 107.662 172.483 105.734 172.483 103.356V79.3718C172.483 76.994 170.556 75.0664 168.178 75.0664Z" fill="url(#paint5_linear_2599_8436)"/>
</g>
<path d="M125.44 96.3097C128.173 96.3097 130.39 94.0936 130.39 91.3599C130.39 88.6262 128.173 86.4102 125.44 86.4102C122.706 86.4102 120.49 88.6262 120.49 91.3599C120.49 94.0936 122.706 96.3097 125.44 96.3097Z" fill="white"/>
<path d="M143.128 96.3097C145.862 96.3097 148.077 94.0936 148.077 91.3599C148.077 88.6262 145.862 86.4102 143.128 86.4102C140.394 86.4102 138.178 88.6262 138.178 91.3599C138.178 94.0936 140.394 96.3097 143.128 96.3097Z" fill="white"/>
<path d="M160.817 96.3097C163.551 96.3097 165.767 94.0936 165.767 91.3599C165.767 88.6262 163.551 86.4102 160.817 86.4102C158.084 86.4102 155.867 88.6262 155.867 91.3599C155.867 94.0936 158.084 96.3097 160.817 96.3097Z" fill="white"/>
<path fill-rule="evenodd" clip-rule="evenodd" d="M116.138 161.244C116.565 158.817 118.879 157.198 121.305 157.625L146.794 162.12C150.276 162.734 153.424 164.351 155.655 166.688C157.885 169.023 159.396 172.342 158.748 176.018C158.1 179.694 155.545 182.297 152.651 183.73C149.756 185.164 146.244 185.61 142.76 184.996L82.1967 174.316C79.7705 173.889 78.1505 171.574 78.5783 169.149C79.0061 166.722 81.3197 165.102 83.7459 165.53L144.31 176.209C146.116 176.527 147.671 176.241 148.692 175.736C149.714 175.229 149.924 174.688 149.962 174.469C150 174.252 149.989 173.673 149.203 172.849C148.417 172.025 147.053 171.225 145.245 170.906L119.651 165.503C117.226 165.075 115.709 163.669 116.138 161.244Z" fill="url(#paint6_linear_2599_8436)"/>
<path fill-rule="evenodd" clip-rule="evenodd" d="M165.371 115.831C166.329 113.772 168.552 112.614 170.788 113.008L190.77 116.532C193.499 117.013 195.321 119.614 194.84 122.343C194.358 125.071 191.757 126.893 189.028 126.412L172.839 123.557L163.276 144.085C162.106 146.597 159.122 147.684 156.61 146.514C154.099 145.344 153.011 142.36 154.182 139.849L165.371 115.831Z" fill="url(#paint7_linear_2599_8436)"/>
<path d="M94.1482 192.088C100.059 193.13 105.696 189.183 106.738 183.272C107.78 177.361 103.833 171.725 97.9225 170.683C92.0117 169.64 86.3751 173.588 85.3329 179.498C84.2907 185.409 88.2375 191.045 94.1482 192.088Z" fill="url(#paint8_linear_2599_8436)"/>
<path d="M160.76 124.901L87.0069 111.896C81.4782 110.921 76.5677 114.891 76.9529 120.016L77.8739 149.93C78.1533 153.633 81.1752 156.757 85.1681 157.461L149.457 173.136L167.446 135.987C171.591 128.463 166.302 125.878 160.76 124.901Z" fill="url(#paint9_linear_2599_8436)"/>
<path d="M94.7881 186.726C97.7575 187.25 100.589 185.267 101.113 182.298C101.637 179.328 99.6537 176.496 96.6842 175.973C93.7146 175.449 90.8829 177.432 90.3593 180.402C89.8356 183.371 91.8185 186.203 94.7881 186.726Z" fill="url(#paint10_linear_2599_8436)"/>
<mask id="mask0_2599_8436" style="mask-type:alpha" maskUnits="userSpaceOnUse" x="76" y="111" width="93" height="63">
<path d="M160.76 124.901L87.0069 111.896C81.4782 110.921 76.5677 114.891 76.9529 120.016L77.8739 149.93C78.1533 153.633 81.1753 156.757 85.1681 157.461L149.457 173.136L167.446 135.987C169.563 131.288 166.302 125.878 160.76 124.901Z" fill="url(#paint11_linear_2599_8436)"/>
</mask>
<g mask="url(#mask0_2599_8436)">
<path d="M125.077 144.626C125.397 142.932 127.03 141.814 128.725 142.127C130.419 142.44 131.533 144.067 131.213 145.76L126.991 168.09C126.672 169.783 125.038 170.902 123.345 170.589C121.65 170.276 120.536 168.649 120.856 166.956L125.077 144.626Z" fill="#A259FF"/>
<path d="M180.174 130.101C181.588 130.347 182.54 131.694 182.301 133.11L182.127 134.135C181.887 135.551 180.546 136.499 179.131 136.254L76.0077 118.343C74.5931 118.097 73.6408 116.75 73.8807 115.335L74.0546 114.31C74.2945 112.894 75.6359 111.946 77.0506 112.191L180.174 130.101Z" fill="#A259FF"/>
<path d="M142.431 147.762C142.751 146.069 144.384 144.95 146.078 145.264C147.772 145.577 148.887 147.204 148.566 148.897L144.345 171.227C144.025 172.92 142.392 174.039 140.697 173.726C139.003 173.413 137.889 171.786 138.209 170.093L142.431 147.762Z" fill="#A259FF"/>
<path d="M107.724 141.489C108.044 139.796 109.677 138.677 111.371 138.99C113.065 139.303 114.18 140.93 113.859 142.623L109.638 164.954C109.318 166.647 107.685 167.765 105.99 167.453C104.296 167.139 103.182 165.512 103.502 163.82L107.724 141.489Z" fill="#A259FF"/>
<path d="M90.1707 138.393C90.4909 136.7 92.1238 135.582 93.8181 135.894C95.5124 136.208 96.6265 137.834 96.3064 139.527L92.0851 161.858C91.765 163.551 90.1321 164.67 88.4377 164.357C86.7434 164.044 85.6293 162.417 85.9494 160.724L90.1707 138.393Z" fill="#A259FF"/>
<path d="M74.9289 112.21C75.253 110.371 77.006 109.144 78.8442 109.468L168.971 125.359C170.809 125.684 172.036 127.437 171.712 129.275C171.387 131.114 169.635 132.341 167.797 132.017L77.6705 116.125C75.8322 115.801 74.6048 114.048 74.9289 112.21Z" fill="url(#paint12_linear_2599_8436)"/>
</g>
<defs>
<filter id="filter0_f_2599_8436" x="41.1603" y="174.326" width="159.803" height="61.6111" filterUnits="userSpaceOnUse" color-interpolation-filters="sRGB">
<feFlood flood-opacity="0" result="BackgroundImageFix"/>
<feBlend mode="normal" in="SourceGraphic" in2="BackgroundImageFix" result="shape"/>
<feGaussianBlur stdDeviation="10.3437" result="effect1_foregroundBlur_2599_8436"/>
</filter>
<filter id="filter1_i_2599_8436" x="78.9395" y="59.7773" width="62.0681" height="78.8862" filterUnits="userSpaceOnUse" color-interpolation-filters="sRGB">
<feFlood flood-opacity="0" result="BackgroundImageFix"/>
<feBlend mode="normal" in="SourceGraphic" in2="BackgroundImageFix" result="shape"/>
<feColorMatrix in="SourceAlpha" type="matrix" values="0 0 0 0 0 0 0 0 0 0 0 0 0 0 0 0 0 0 127 0" result="hardAlpha"/>
<feOffset dx="2.38455" dy="5.56394"/>
<feGaussianBlur stdDeviation="5.96137"/>
<feComposite in2="hardAlpha" operator="arithmetic" k2="-1" k3="1"/>
<feColorMatrix type="matrix" values="0 0 0 0 0.104618 0 0 0 0 0.465612 0 0 0 0 0.545833 0 0 0 0.15 0"/>
<feBlend mode="normal" in2="shape" result="effect1_innerShadow_2599_8436"/>
</filter>
<filter id="filter2_i_2599_8436" x="112.846" y="75.0664" width="65.2626" height="36.3463" filterUnits="userSpaceOnUse" color-interpolation-filters="sRGB">
<feFlood flood-opacity="0" result="BackgroundImageFix"/>
<feBlend mode="normal" in="SourceGraphic" in2="BackgroundImageFix" result="shape"/>
<feColorMatrix in="SourceAlpha" type="matrix" values="0 0 0 0 0 0 0 0 0 0 0 0 0 0 0 0 0 0 127 0" result="hardAlpha"/>
<feOffset dx="5.62585" dy="3.75056"/>
<feGaussianBlur stdDeviation="6.09467"/>
<feComposite in2="hardAlpha" operator="arithmetic" k2="-1" k3="1"/>
<feColorMatrix type="matrix" values="0 0 0 0 0.104618 0 0 0 0 0.465612 0 0 0 0 0.545833 0 0 0 0.09 0"/>
<feBlend mode="normal" in2="shape" result="effect1_innerShadow_2599_8436"/>
</filter>
<radialGradient id="paint0_radial_2599_8436" cx="0" cy="0" r="1" gradientUnits="userSpaceOnUse" gradientTransform="translate(121.062 205.132) rotate(90) scale(10.1188 59.2142)">
<stop stop-color="#2B2B2B"/>
<stop offset="1" stop-color="#2B2B2B" stop-opacity="0"/>
</radialGradient>
<linearGradient id="paint1_linear_2599_8436" x1="86.0986" y1="66.2332" x2="136.258" y2="64.6874" gradientUnits="userSpaceOnUse">
<stop stop-color="#A259FF"/>
<stop offset="1" stop-color="#3B3B3B"/>
</linearGradient>
<linearGradient id="paint2_linear_2599_8436" x1="118.27" y1="91.702" x2="114.978" y2="81.9423" gradientUnits="userSpaceOnUse">
<stop stop-color="#A259FF"/>
<stop offset="0.666667" stop-color="white"/>
</linearGradient>
<linearGradient id="paint3_linear_2599_8436" x1="122.856" y1="117.357" x2="119.697" y2="107.886" gradientUnits="userSpaceOnUse">
<stop stop-color="#A259FF"/>
<stop offset="0.666667" stop-color="white"/>
</linearGradient>
<linearGradient id="paint4_linear_2599_8436" x1="120.481" y1="103.886" x2="117.321" y2="94.4155" gradientUnits="userSpaceOnUse">
<stop stop-color="#A259FF"/>
<stop offset="0.666667" stop-color="white"/>
</linearGradient>
<linearGradient id="paint5_linear_2599_8436" x1="112.846" y1="114.984" x2="149.544" y2="59.9061" gradientUnits="userSpaceOnUse">
<stop stop-color="#A259FF"/>
<stop offset="1" stop-color="#FF6250"/>
</linearGradient>
<linearGradient id="paint6_linear_2599_8436" x1="141.924" y1="178.175" x2="129.343" y2="119.126" gradientUnits="userSpaceOnUse">
<stop stop-color="#A259FF"/>
<stop offset="0.666667" stop-color="white"/>
</linearGradient>
<linearGradient id="paint7_linear_2599_8436" x1="183.859" y1="123.353" x2="212.9" y2="157.155" gradientUnits="userSpaceOnUse">
<stop stop-color="#A259FF"/>
<stop offset="1" stop-color="#377DF7"/>
</linearGradient>
<linearGradient id="paint8_linear_2599_8436" x1="101.593" y1="187.156" x2="76.7701" y2="161.794" gradientUnits="userSpaceOnUse">
<stop stop-color="#A259FF"/>
<stop offset="0.666667" stop-color="white"/>
</linearGradient>
<linearGradient id="paint9_linear_2599_8436" x1="145.221" y1="158.18" x2="95.3243" y2="58.7037" gradientUnits="userSpaceOnUse">
<stop stop-color="#A259FF"/>
<stop offset="0.666667" stop-color="white"/>
</linearGradient>
<linearGradient id="paint10_linear_2599_8436" x1="89.5626" y1="183.031" x2="105.055" y2="186.017" gradientUnits="userSpaceOnUse">
<stop stop-color="white"/>
<stop offset="1" stop-color="#BCF3FF"/>
</linearGradient>
<linearGradient id="paint11_linear_2599_8436" x1="76.3047" y1="121.766" x2="167.648" y2="139" gradientUnits="userSpaceOnUse">
<stop stop-color="#AFF1FF"/>
<stop offset="1" stop-color="#65C8DE"/>
</linearGradient>
<linearGradient id="paint12_linear_2599_8436" x1="151.901" y1="127.272" x2="153.387" y2="108.464" gradientUnits="userSpaceOnUse">
<stop stop-color="#A259FF"/>
<stop offset="0.666667" stop-color="white"/>
</linearGradient>
</defs>
</svg>
