<svg width="250" height="250" viewBox="0 0 250 250" fill="none" xmlns="http://www.w3.org/2000/svg">
<path d="M165.316 139.369L94.9836 113.77C89.5922 111.808 83.631 114.588 81.6688 119.979L65.0658 165.595C63.1036 170.986 65.8833 176.947 71.2745 178.909L141.608 204.509C146.999 206.471 152.96 203.691 154.922 198.3L171.525 152.684C173.487 147.292 170.707 141.331 165.316 139.369Z" fill="url(#paint0_linear_2599_8409)"/>
<path d="M162.461 153.499L183.237 123.572C186.509 118.859 185.341 112.386 180.629 109.115L150.702 88.3382C145.989 85.0663 139.516 86.2345 136.244 90.9471L115.468 120.874C112.196 125.587 113.364 132.059 118.077 135.331L148.003 156.107C152.716 159.379 159.189 158.211 162.461 153.499Z" fill="url(#paint1_linear_2599_8409)"/>
<path d="M138.808 129.682C137.537 131.434 135.095 131.821 133.343 130.55C131.592 129.279 131.205 126.837 132.476 125.085C133.747 123.333 136.189 122.946 137.941 124.217C139.692 125.489 140.08 127.931 138.808 129.682Z" fill="url(#paint2_linear_2599_8409)"/>
<path d="M150.369 113.728L147.952 111.975L136.407 127.894L138.825 129.648L150.369 113.728Z" fill="url(#paint3_linear_2599_8409)"/>
<path d="M152.393 132.506C151.122 134.258 148.68 134.646 146.929 133.374C145.177 132.103 144.789 129.661 146.061 127.909C147.332 126.157 149.774 125.77 151.526 127.041C153.277 128.313 153.665 130.755 152.393 132.506Z" fill="url(#paint4_linear_2599_8409)"/>
<path d="M163.978 116.544L161.56 114.791L150.018 130.712L152.436 132.465L163.978 116.544Z" fill="url(#paint5_linear_2599_8409)"/>
<path d="M163.947 116.584L146.416 114.102L147.956 111.971L165.484 114.461L163.947 116.584Z" fill="url(#paint6_linear_2599_8409)"/>
<path d="M161.037 120.596L143.505 118.114L145.045 115.982L162.581 118.475L161.037 120.596Z" fill="url(#paint7_linear_2599_8409)"/>
<path d="M147.076 87.2561L140.992 59.0678C139.782 53.4597 134.253 49.8947 128.646 51.1052L91.7852 59.0611C86.1774 60.2716 82.6124 65.7991 83.8229 71.4072L89.9072 99.5955C91.1176 105.203 96.6448 108.768 102.253 107.558L139.113 99.6018C144.722 98.3917 148.286 92.8645 147.076 87.2561Z" fill="url(#paint8_linear_2599_8409)"/>
<path d="M146.596 84.3574L125.933 67.7676L117.945 83.516L109.53 78.6648L97.8963 94.8596L89.1699 96.74L89.5854 98.6929C90.9878 105.176 97.3764 109.3 103.859 107.897L137.797 100.573C144.279 99.1712 148.404 92.7826 147 86.3001L146.586 84.3574H146.596Z" fill="url(#paint9_linear_2599_8409)"/>
<path opacity="0.9" d="M97.6883 76.7851C100.919 76.7019 103.007 73.4608 101.75 70.4898C101.043 68.8278 99.3504 67.737 97.5424 67.7785C94.3123 67.8616 92.2236 71.1028 93.4808 74.0738C94.1874 75.7358 95.8803 76.8266 97.6883 76.7851Z" fill="white"/>
<path d="M153.834 196.629C152.396 202.673 146.011 206.112 140.174 203.987L69.9725 178.435C65.0165 176.632 62.1988 171.401 63.4194 166.27L73.3886 124.364C74.8261 118.32 81.2106 114.881 87.0476 117.006L157.25 142.558C162.205 144.361 165.023 149.592 163.803 154.723L153.834 196.629Z" fill="url(#paint10_linear_2599_8409)"/>
<defs>
<linearGradient id="paint0_linear_2599_8409" x1="144.092" y1="148.037" x2="182.892" y2="240.768" gradientUnits="userSpaceOnUse">
<stop stop-color="#A259FF"/>
<stop offset="0.416667" stop-color="#A259FF" stop-opacity="0"/>
</linearGradient>
<linearGradient id="paint1_linear_2599_8409" x1="155.431" y1="141.332" x2="88.7768" y2="161.815" gradientUnits="userSpaceOnUse">
<stop stop-color="#FF7262"/>
<stop offset="0.317708" stop-color="#A259FF"/>
</linearGradient>
<linearGradient id="paint2_linear_2599_8409" x1="144.953" y1="111.553" x2="152.341" y2="127.114" gradientUnits="userSpaceOnUse">
<stop stop-color="#3B3B3B"/>
<stop offset="1" stop-color="#A259FF"/>
</linearGradient>
<linearGradient id="paint3_linear_2599_8409" x1="171.05" y1="84.8342" x2="177.564" y2="91.2282" gradientUnits="userSpaceOnUse">
<stop stop-color="#3B3B3B"/>
<stop offset="1" stop-color="#A259FF"/>
</linearGradient>
<linearGradient id="paint4_linear_2599_8409" x1="158.538" y1="114.378" x2="165.925" y2="129.938" gradientUnits="userSpaceOnUse">
<stop stop-color="#3B3B3B"/>
<stop offset="1" stop-color="#A259FF"/>
</linearGradient>
<linearGradient id="paint5_linear_2599_8409" x1="184.654" y1="87.646" x2="191.169" y2="94.0392" gradientUnits="userSpaceOnUse">
<stop stop-color="#3B3B3B"/>
<stop offset="1" stop-color="#A259FF"/>
</linearGradient>
<linearGradient id="paint6_linear_2599_8409" x1="168.053" y1="103.502" x2="167.786" y2="121.807" gradientUnits="userSpaceOnUse">
<stop stop-color="#3B3B3B"/>
<stop offset="1" stop-color="#A259FF"/>
</linearGradient>
<linearGradient id="paint7_linear_2599_8409" x1="165.149" y1="107.517" x2="164.881" y2="125.821" gradientUnits="userSpaceOnUse">
<stop stop-color="#3B3B3B"/>
<stop offset="1" stop-color="#A259FF"/>
</linearGradient>
<linearGradient id="paint8_linear_2599_8409" x1="123.704" y1="58.7822" x2="135.466" y2="97.2286" gradientUnits="userSpaceOnUse">
<stop stop-color="#FF7262"/>
<stop offset="1" stop-color="#A259FF"/>
</linearGradient>
<linearGradient id="paint9_linear_2599_8409" x1="115.393" y1="123.188" x2="102.615" y2="75.9924" gradientUnits="userSpaceOnUse">
<stop stop-color="#A259FF"/>
<stop offset="1" stop-color="white"/>
</linearGradient>
<linearGradient id="paint10_linear_2599_8409" x1="137.015" y1="183.7" x2="88.1547" y2="59.3849" gradientUnits="userSpaceOnUse">
<stop stop-color="#A259FF"/>
<stop offset="0.666667" stop-color="white"/>
</linearGradient>
</defs>
</svg>
