<svg width="15" height="15" viewBox="0 0 15 15" fill="none" xmlns="http://www.w3.org/2000/svg">
<path d="M6.44976 1.18657C6.70429 0.133124 8.20338 0.133124 8.45791 1.18657L9.31388 4.73367C9.40446 5.11048 9.69885 5.40487 10.0757 5.49545L13.6228 6.35233C14.6762 6.60596 14.6762 8.10504 13.6228 8.35957L10.0757 9.21645C9.69885 9.30703 9.40446 9.60143 9.31388 9.97733L8.45791 13.5244C8.20338 14.5788 6.70429 14.5788 6.44976 13.5244L5.59288 9.97733C5.5023 9.60143 5.20791 9.30703 4.832 9.21645L1.2849 8.35957C0.230554 8.10504 0.230554 6.60596 1.2849 6.35233L4.832 5.49545C5.20791 5.40487 5.5023 5.11048 5.59288 4.73367L6.44976 1.18657Z" fill="url(#paint0_linear_2574_8369)"/>
<defs>
<linearGradient id="paint0_linear_2574_8369" x1="10.4289" y1="3.49001" x2="23.7713" y2="13.9692" gradientUnits="userSpaceOnUse">
<stop stop-color="#A259FF"/>
<stop offset="1" stop-color="#377DF7"/>
</linearGradient>
</defs>
</svg>
